<?xml version="1.0" encoding="utf-8"?>
<!-- Generator: Adobe Illustrator 23.0.1, SVG Export Plug-In . SVG Version: 6.00 Build 0)  -->
<svg version="1.1" id="Layer_1" xmlns="http://www.w3.org/2000/svg" xmlns:xlink="http://www.w3.org/1999/xlink" x="0px" y="0px"
	 viewBox="0 0 210 102" style="enable-background:new 0 0 210 102;" xml:space="preserve">
<style type="text/css">
	.st0{fill:#4D4D4D;}
</style>
<g>
	<path class="st0" d="M42.08,40.4c-0.12-0.67-0.7-1.05-1.55-1.05c-1.11,0-1.55,0.53-1.55,1.23c0,2.02,7.67-0.21,7.67,5.5
		c0,2.81-2.43,4.86-6.18,4.86c-3.72,0-6.12-1.99-6.18-4.77h4.33c0.03,0.76,0.59,1.14,1.79,1.14c1.41,0,1.79-0.47,1.79-1.23
		c0-2.02-7.67,0.21-7.67-5.5c0-2.78,2.31-4.86,5.92-4.86c3.6,0,5.83,2.08,5.91,4.69H42.08z"/>
	<path class="st0" d="M63.87,50.56h-4.04v-2.25h-0.06c-0.7,1.58-2.34,2.64-4.48,2.64c-3.07,0-6.94-2.25-6.94-7.61
		c0-4.39,3.22-7.61,7.79-7.61s7.73,3.02,7.73,7.76V50.56z M59.48,43.33c0-2.08-1.35-3.51-3.34-3.51s-3.34,1.44-3.34,3.51
		s1.35,3.51,3.34,3.51S59.48,45.41,59.48,43.33z"/>
	<path class="st0" d="M66.6,31.97c0-1.58,1.23-2.81,2.81-2.81c1.58,0,2.81,1.23,2.81,2.81s-1.23,2.81-2.81,2.81
		C67.82,34.78,66.6,33.55,66.6,31.97z M67.21,50.56V36.1h4.39v14.47H67.21z"/>
	<path class="st0" d="M75.41,50.56V29.77h4.39v20.79H75.41z"/>
	<path class="st0" d="M98.07,50.56h-4.04v-2.25h-0.06c-0.7,1.58-2.34,2.64-4.48,2.64c-3.07,0-6.94-2.25-6.94-7.61
		c0-4.39,3.22-7.61,7.79-7.61s7.73,3.02,7.73,7.76V50.56z M93.68,43.33c0-2.08-1.35-3.51-3.34-3.51S87,41.25,87,43.33
		s1.35,3.51,3.34,3.51S93.68,45.41,93.68,43.33z"/>
	<path class="st0" d="M101.41,50.56V29.77h4.39v20.79H101.41z"/>
	<path class="st0" d="M124.08,50.56h-4.04v-2.25h-0.06c-0.7,1.58-2.34,2.64-4.48,2.64c-3.07,0-6.94-2.25-6.94-7.61
		c0-4.39,3.22-7.61,7.79-7.61s7.73,3.02,7.73,7.76V50.56z M119.69,43.33c0-2.08-1.35-3.51-3.34-3.51s-3.34,1.44-3.34,3.51
		s1.35,3.51,3.34,3.51S119.69,45.41,119.69,43.33z"/>
	<path class="st0" d="M135.82,50.56v-8.14c0-1.93-0.94-2.61-2.23-2.61c-1.32,0-2.25,0.67-2.25,2.61v8.14h-4.39v-8.14
		c0-4.66,2.69-6.71,6.21-6.71c2.05,0,3.75,0.79,4.83,2.25h0.06c1.08-1.46,2.75-2.25,4.83-2.25c3.51,0,6.21,2.05,6.21,6.71v8.14
		h-4.39v-8.14c0-1.93-0.94-2.61-2.25-2.61c-1.29,0-2.23,0.67-2.23,2.61v8.14H135.82z"/>
	<path class="st0" d="M155.94,44.56v0.06c0.38,1.58,1.58,2.4,3.22,2.4c1.26,0,2.2-0.26,2.75-1.05h4.54
		c-0.94,2.99-3.69,4.98-7.29,4.98c-4.57,0-7.79-3.22-7.79-7.61c0-4.39,3.22-7.61,7.79-7.61s7.7,3.22,7.7,7.61v1.23H155.94z
		 M156.03,41.72v0.06h6.32v-0.06c-0.5-1.38-1.67-2.08-3.19-2.08C157.64,39.64,156.49,40.34,156.03,41.72z"/>
	<path class="st0" d="M184.08,43.18c0,4.74-3.16,7.76-7.73,7.76s-7.79-3.22-7.79-7.61c0-5.36,3.87-7.61,6.94-7.61
		c1.84,0,3.31,0.73,4.13,1.87h0.06v-7.82h4.39V43.18z M179.69,43.33c0-2.08-1.35-3.51-3.34-3.51s-3.34,1.44-3.34,3.51
		s1.35,3.51,3.34,3.51S179.69,45.41,179.69,43.33z"/>
	<path class="st0" d="M201.88,50.56h-4.04v-2.25h-0.06c-0.7,1.58-2.34,2.64-4.48,2.64c-3.07,0-6.94-2.25-6.94-7.61
		c0-4.39,3.22-7.61,7.79-7.61s7.73,3.02,7.73,7.76V50.56z M197.49,43.33c0-2.08-1.35-3.51-3.34-3.51s-3.34,1.44-3.34,3.51
		s1.35,3.51,3.34,3.51S197.49,45.41,197.49,43.33z"/>
</g>
<g>
	<polygon class="st0" points="158.5,93.5 142,77 151.5,67.5 116.5,57.5 126.5,92.5 136.34,82.66 152.5,99.5 	"/>
	<g>
		<path class="st0" d="M147.74,75.5h54.21c0.58,0,1.04-0.47,1.04-1.04v-3.91c0-0.58-0.47-1.04-1.04-1.04h-48.21l-0.12,0.12
			L147.74,75.5z"/>
		<path class="st0" d="M16.65,14.5h185.31c0.58,0,1.04-0.47,1.04-1.04V9.54c0-0.58-0.47-1.04-1.04-1.04H16.65
			C11.04,8.5,6.5,13.04,6.5,18.65v46.7c0,5.61,4.54,10.15,10.15,10.15h101.87l-1.71-6H16.65c-2.29,0-4.15-1.86-4.15-4.15v-46.7
			C12.5,16.36,14.36,14.5,16.65,14.5z"/>
		<path class="st0" d="M26.88,61C24.74,61,23,59.26,23,57.12V24.88c0-2.14,1.74-3.88,3.88-3.88h175.08c0.58,0,1.04-0.47,1.04-1.04
			v-0.91c0-0.58-0.47-1.04-1.04-1.04H26.88c-3.8,0-6.88,3.08-6.88,6.88v32.24c0,3.8,3.08,6.88,6.88,6.88h88.36l-0.86-3H26.88z"/>
		<path class="st0" d="M201.96,64c0.58,0,1.04-0.47,1.04-1.04v-0.91c0-0.58-0.47-1.04-1.04-1.04h-62.29l10.5,3H201.96z"/>
	</g>
</g>
</svg>
