<svg xmlns="http://www.w3.org/2000/svg" viewBox="0 0 414 414"><defs><style>.a{fill:#485763;}.b{fill:#fff;}</style></defs><title>logo-mba</title><rect class="a" width="414" height="414"/><rect class="b" x="209.98" y="91.05" width="128.72" height="128.72"/><path class="b" d="M1269.19,287.68c-1.09-.44-2.18-.87-2.18-2s.44-1.09,1.31-1.09c.23,0,1,.44,1-.45,0-.44,0-.83.88-.83.5,0,2-.81,2-1.81,0-.61-.06-1.16.27-1.16s.61,0,1.1,1.21.88,1.37,1.54,1.65c.61.11,2.48.49,3.41-.39,1.21-.77,2.75-1.54,4-.66a20,20,0,0,0,6-.06,35.2,35.2,0,0,1,6-1.15c2.7,0,6.44,0,7.59-1.38.88-1.38,1.26-2.69,2-2.59.55-.06,1.21.38,1.38,2.09.11.39.33,1,2.42.72s3.46-.55,4.4-1.32a23.49,23.49,0,0,0,2.75-2.59c.6-.66,2.53-1.82,3,.22.22.88.16,2.7.77,3.25a4.7,4.7,0,0,0,1.93.88,3.31,3.31,0,0,1,2.75,1.21c.6.11,1,.17,1.43-.55s.66-.27,1-.05a35.88,35.88,0,0,0,3.69.22c.71.22,1.54.22,1.48,2.2.11.83.06,1.87.11,2.2s.6.66,1.15.66c1.65.07,5.55-.5,6.58.7a5.9,5.9,0,0,0,1.72,1.32c.57.23.92.75.92,1.89s.52,3.84,2.75,3.84h5.67c.86,0,1.49.11,1.55,1.43.17,1.83-.74,8.36-.46,10.25.46,2.52,1.2,12.71,1.26,14.43.11,2.86.06,14.08-.11,15.8-.06,3.44,0,7.84-.23,8.87a19.38,19.38,0,0,0,.51,3.72,13.75,13.75,0,0,1-.46,4.29c-.4,1.14.4,3.43.74,4.35a7.92,7.92,0,0,1,.17,4.35,9.44,9.44,0,0,1-.4,2.4c0,.86.4,2.46-1.09,3-.12.92-.63,3.89-.63,4.81a9.64,9.64,0,0,0,0,1.83c.11.4.46.4.63,0a37.13,37.13,0,0,0,.46-5.09,2.6,2.6,0,0,1,.74-1.83,3.41,3.41,0,0,0,1.37-1.89c.17-.92.46-1.09.06-1.83a8.45,8.45,0,0,1,.17-5.84,4.43,4.43,0,0,1,1.09-.8c.4-.29.29-1,.29-1.6a5.51,5.51,0,0,0-.4-2.75,1.84,1.84,0,0,1,.34-1.77c.63-.86,1.09-1.83.69-2.58s-.57-2,.06-2.4.74-1.26.28-2.29-.57-5.5.06-6.41a4.21,4.21,0,0,0,.23-1.95,8.8,8.8,0,0,1,1-2.17,12.1,12.1,0,0,0-.63-4.92,2.52,2.52,0,0,1,.4-3,4.92,4.92,0,0,0,.69-2.86,6.29,6.29,0,0,1,0-3.72,18.85,18.85,0,0,0,.23-4.58,4.35,4.35,0,0,1,1.37-2.29c.63-.57.46-1.6.4-2.12,0-.69.69-1.55.92-2.12a8.12,8.12,0,0,0-.4-3.66c-.34-.63-1.2-3.21,1.26-2.92a6.23,6.23,0,0,0,3.95.06c.46-.29,1.95-.4,1.37-1.89-.29-.63.06-1.72,1.37-1.54,2.06,0,3.95-.29,4.92.57s2.35,1.72,4.06-.06c1.15-1.6,1.72-2.52,1.43-3.72a3,3,0,0,1,.23-3.38c.27-.45,1.23-2.36,1-3.56a15.12,15.12,0,0,0-.78-2.9c-.24-.37.27-1.19,1.54-.75.27.17,1.84.07,2.46.58a2.81,2.81,0,0,0,3.21.44c1.5-.72,4.81-.79,4.4,2.53-.1.51.51,2.83.55,4a45,45,0,0,1-.48,7.55,181.25,181.25,0,0,0,.16,18.36c.46,4.21.27,6.6-.55,8.06a2.77,2.77,0,0,0,.18,3c.73.92,1.19,7,.46,9.53-.28,2-.64,5.41.09,7.88.27,1.92-.46,7.42-.64,9.53.09,1.28.37,5.68-1.56,7.7-.55.82-3.39,2.38-.46,4a4.53,4.53,0,0,1,.92,5.22,1.77,1.77,0,0,0,.46,2.2c.92.73.28,2.38-.82,3.85-.18,1-1.1,3.11-.27,5.49.82,2.75.92,4.76-.27,8.52a3.3,3.3,0,0,0,.18,2.93c.64.82.37,2-.55,3.21a5.3,5.3,0,0,0,1.19,5c.73.73.64,2.2.37,3.21a25.51,25.51,0,0,0-.92,4.58,2.28,2.28,0,0,1-2.2,1.74,6,6,0,0,1-4.31,1.56c-.46.09-3.76,1.47-2.56-2,.36-3.11-.46-12.37-1.38-14.75-.64-1.1-1.19-2.75-1.92.55-.18,2.56,0,6.14-2.65,5.68-.74-.08-2,1-2.59,1.46s-4.33,1.14-4.63-1.71c-.23-1.81-.24-8.06-.44-9.33-.54-2-.74-2.89-2.22-2.18-.54.34-2.21.6-2.65-.6-.23-1.24-.17-1.91-1.34-2.08-.91,0-1.78.54-.74,1.71.67.81,1.68,1.34,1.34,3.59a2.55,2.55,0,0,1-1.75,1.71c-.44.27-.81,1.11-.13,2.38s.47,2.92-.24,3.46c-.27.34-.57.74.07,1.21s1.11,1.24-.2,1.81a7.66,7.66,0,0,0-2.15,4.9,5.27,5.27,0,0,0,.37,2.45c.37.6.8,1.11.1,1.91-.3.5-.5,1.68-.87,2.22a3.4,3.4,0,0,0-.8,1.88,29.18,29.18,0,0,0-.37,3.49c-.17.54,0,1.48-2.92,1.41-1.28.07-1.95-.17-2.38.1a6,6,0,0,1-2.75.67c-.91-.13-.94-.87-1.21-1.14a2.7,2.7,0,0,1-.94-2.08c0-1,0-5.65-.34-6.48s-.28-2.43-1.11-3.82a8.56,8.56,0,0,1-1.11-5.69c.07-.83.14-1.67.49-1.94a2.37,2.37,0,0,0,0-2.36,6.15,6.15,0,0,1-1-3.75,3.81,3.81,0,0,0-.46-2.08,2.33,2.33,0,0,1-.19-2.59,6.7,6.7,0,0,0-.33-3c-.33-.57-1.09-.62-1.28,0a7.1,7.1,0,0,0,.17,3.06c.31.95.9,1.69-.09,3.11a11.53,11.53,0,0,0-.14,2c0,.85-1.47,4-5.67,4.13a9,9,0,0,0-2.3.33,3.17,3.17,0,0,1-2.82-.85c-.19-.45-1-1.57-2.18-1a15.59,15.59,0,0,1-4.32.83c-2.11,0-3.27-.62-3.75-1.31a1.65,1.65,0,0,1,.07-1.94,1.71,1.71,0,0,0-.4-2,3.28,3.28,0,0,1-1.07-2c0-.95.78-2.33.74-3.3a4,4,0,0,0-.76-1.45c-.31-.33-2-1-2.66.31a6.09,6.09,0,0,0-.5,2.3c.07.59.85,2.75-.5,4.43a7.66,7.66,0,0,1-4.17,2.85,20,20,0,0,0-3.6,1,5.24,5.24,0,0,0-1.56,2c-.21.33-.71.57-1.61-.19a.56.56,0,0,0-.83.64,23.2,23.2,0,0,1,.71,2.35c0,.9.36,2.3-1.23,3.63-.28.31-2.13.78-2.23,2a3.93,3.93,0,0,1-.85,2.89c-1,1.07-.85,1-.92,1.23s-.55.54-.81-.07a10.91,10.91,0,0,1-.43-3c-.1-.48-.19-1.59-2.11-2.7a5.94,5.94,0,0,1-2.35-4.37,13.56,13.56,0,0,0-.66-3.56c-.33-.5-1.11-.93-1.59.1-.24.8-.64,4-.19,4.62s2.23,2-.24,4c-.54.4-1.45.71-1.49,2.14,0,.85.19,2.35-3.22,2.44a2.84,2.84,0,0,1-2.68-2.44c0-.64.28-1.5,1-1.4.24,0,1-.07.64-.78-.33-.36-2.63-2.28-2.61-3.72a51.45,51.45,0,0,0-.4-6.81,8.32,8.32,0,0,1,.24-2.54,1.07,1.07,0,0,0-.59-1.3c-.36,0-.71.31-1,1.12s-.4,2.77-.81,3.82c-.48.88-.83,1.09-.81,2s-.09,1.59-.76,1.85a2.27,2.27,0,0,1-2.32-.31c-.71-.31-2.89-1.87-2.87-6.9.12-4.28-.67-16-.31-19.18s1-7.27.73-9.22a65.46,65.46,0,0,1-1-12.15c.18-1.77,1.47-11.79.79-14s-2.63-6.47-.73-11.91c.31-2.26-.73-18-.86-19.54s-.79-4.7-.79-5.68c.06-.49.49-1.28,1.34-.67.24.25,1,1.41,1-.12a20.24,20.24,0,0,0-.18-5.25,32.85,32.85,0,0,1-.24-7C1271.09,290.35,1270.48,287.86,1269.19,287.68Z" transform="translate(-1193 -193)"/><path class="b" d="M1277.91,476.73l5.63,12.1h-1.29l-1.89-4h-5.24l-1.88,4h-1.35l5.72-12.1Zm-.16,2.54-2.08,4.41h4.16Z" transform="translate(-1193 -193)"/><path class="b" d="M1302.41,486.57l1-.62q1.08,2,2.5,2a2.37,2.37,0,0,0,1.14-.28,2,2,0,0,0,.81-.76,2,2,0,0,0,.28-1,2,2,0,0,0-.41-1.19,9.82,9.82,0,0,0-2.06-1.94,10.55,10.55,0,0,1-1.88-1.65,3,3,0,0,1-.64-1.85,2.82,2.82,0,0,1,.38-1.44,2.7,2.7,0,0,1,1.06-1,3.06,3.06,0,0,1,1.49-.37,3.16,3.16,0,0,1,1.6.42,5.49,5.49,0,0,1,1.57,1.56l-1,.75a4.74,4.74,0,0,0-1.16-1.19,2,2,0,0,0-1-.29,1.65,1.65,0,0,0-1.19.44,1.46,1.46,0,0,0-.46,1.09,1.86,1.86,0,0,0,.16.76,2.8,2.8,0,0,0,.6.81q.24.23,1.56,1.21a8.78,8.78,0,0,1,2.15,2.06,3.33,3.33,0,0,1,.58,1.82,3.08,3.08,0,0,1-1,2.29,3.35,3.35,0,0,1-2.43,1,3.55,3.55,0,0,1-2-.59A5.39,5.39,0,0,1,1302.41,486.57Z" transform="translate(-1193 -193)"/><path class="b" d="M1329,486.57l1-.62q1.08,2,2.5,2a2.38,2.38,0,0,0,1.14-.28,2,2,0,0,0,.81-.76,2,2,0,0,0,.28-1,2,2,0,0,0-.41-1.19,9.81,9.81,0,0,0-2.06-1.94,10.54,10.54,0,0,1-1.87-1.65,3,3,0,0,1-.64-1.85,2.81,2.81,0,0,1,.38-1.44,2.69,2.69,0,0,1,1.06-1,3.06,3.06,0,0,1,1.49-.37,3.17,3.17,0,0,1,1.6.42,5.49,5.49,0,0,1,1.57,1.56l-1,.75a4.73,4.73,0,0,0-1.16-1.19,2,2,0,0,0-1-.29,1.65,1.65,0,0,0-1.19.44,1.46,1.46,0,0,0-.46,1.09,1.88,1.88,0,0,0,.16.76,2.82,2.82,0,0,0,.6.81q.24.23,1.56,1.21a8.77,8.77,0,0,1,2.15,2.06,3.34,3.34,0,0,1,.58,1.82,3.08,3.08,0,0,1-1,2.29,3.35,3.35,0,0,1-2.43,1,3.54,3.54,0,0,1-2-.59A5.38,5.38,0,0,1,1329,486.57Z" transform="translate(-1193 -193)"/><path class="b" d="M1362.67,476.42a6.26,6.26,0,0,1,4.59,1.83,6.36,6.36,0,0,1-4.49,10.87,6.18,6.18,0,0,1-4.54-1.84,6.06,6.06,0,0,1-1.85-4.46,6.46,6.46,0,0,1,.84-3.23,6.22,6.22,0,0,1,5.44-3.17Zm.05,1.18a5,5,0,0,0-2.54.7,5,5,0,0,0-1.87,1.89,5.25,5.25,0,0,0-.67,2.64,5.08,5.08,0,0,0,5.08,5.13,5.15,5.15,0,0,0,2.6-.68,4.88,4.88,0,0,0,1.86-1.87,5.27,5.27,0,0,0,.67-2.63,5.14,5.14,0,0,0-.67-2.61,5,5,0,0,0-1.88-1.86A5.09,5.09,0,0,0,1362.72,477.6Z" transform="translate(-1193 -193)"/><path class="b" d="M1401.06,479l-1,.73a5.19,5.19,0,0,0-1.89-1.56,5.54,5.54,0,0,0-2.43-.53,5.35,5.35,0,0,0-2.68.7,5,5,0,0,0-1.91,1.87,5.2,5.2,0,0,0-.68,2.64,5,5,0,0,0,1.51,3.7,5.24,5.24,0,0,0,3.82,1.49,5.37,5.37,0,0,0,4.25-2l1,.72a6.09,6.09,0,0,1-2.25,1.77,7.11,7.11,0,0,1-3,.63,6.26,6.26,0,0,1-5-2.12,6.38,6.38,0,0,1-1.53-4.31,6,6,0,0,1,1.86-4.47,6.4,6.4,0,0,1,4.66-1.81,6.85,6.85,0,0,1,3.05.67A5.94,5.94,0,0,1,1401.06,479Z" transform="translate(-1193 -193)"/><path class="b" d="M1421.56,476.73h1.22v12.1h-1.22Z" transform="translate(-1193 -193)"/><path class="b" d="M1448.74,476.73l5.63,12.1h-1.29l-1.89-4h-5.24l-1.88,4h-1.35l5.72-12.1Zm-.16,2.54-2.08,4.41h4.16Z" transform="translate(-1193 -193)"/><path class="b" d="M1472,477.91v-1.18h6.61v1.18h-2.7v10.92h-1.22V477.91Z" transform="translate(-1193 -193)"/><path class="b" d="M1498.55,476.73h6.93v1.18h-5.72v3.81h5.67v1.18h-5.67v4.76h5.67v1.18h-6.89Z" transform="translate(-1193 -193)"/><path class="b" d="M1524.56,486.57l1-.62q1.08,2,2.5,2a2.37,2.37,0,0,0,1.14-.28,2,2,0,0,0,.81-.76,2,2,0,0,0,.28-1,2.07,2.07,0,0,0-.41-1.19,9.85,9.85,0,0,0-2.06-1.94,10.55,10.55,0,0,1-1.87-1.65,3,3,0,0,1-.64-1.85,2.81,2.81,0,0,1,.38-1.44,2.7,2.7,0,0,1,1.06-1,3.06,3.06,0,0,1,1.49-.37,3.17,3.17,0,0,1,1.6.42,5.51,5.51,0,0,1,1.57,1.56l-1,.75a4.74,4.74,0,0,0-1.16-1.19,2,2,0,0,0-1-.29,1.65,1.65,0,0,0-1.19.44,1.45,1.45,0,0,0-.46,1.09,1.88,1.88,0,0,0,.16.76,2.81,2.81,0,0,0,.6.81q.24.23,1.56,1.21a8.79,8.79,0,0,1,2.15,2.06,3.33,3.33,0,0,1,.58,1.82,3.09,3.09,0,0,1-1,2.29,3.36,3.36,0,0,1-2.43,1,3.56,3.56,0,0,1-2-.59A5.38,5.38,0,0,1,1524.56,486.57Z" transform="translate(-1193 -193)"/><path class="b" d="M1271,462.39l2.67-18.56.32,0,7.49,15.22,7.54-15.22.3,0,2.64,18.56h-1.78l-1.85-13.29-6.63,13.29h-.49L1274.65,449l-1.84,13.38Z" transform="translate(-1193 -193)"/><path class="b" d="M1301.17,443.86h10.66v1.82H1303v5.8h8.71v1.82H1303v7.3h8.71v1.82h-10.58Z" transform="translate(-1193 -193)"/><path class="b" d="M1320.67,443.79h1.86v16.74h7.13v1.82h-9Z" transform="translate(-1193 -193)"/><path class="b" d="M1338,443.79h1.86v18.56H1338Z" transform="translate(-1193 -193)"/><path class="b" d="M1349.82,443.79h1.86v16.74h7.13v1.82h-9Z" transform="translate(-1193 -193)"/><path class="b" d="M1367.31,443.84h1.86v16.74h7.13v1.82h-9Z" transform="translate(-1193 -193)"/><path class="b" d="M1393.58,443.59a9.59,9.59,0,0,1,7,2.81,9.74,9.74,0,0,1-6.88,16.65,9.46,9.46,0,0,1-6.95-2.82,9.28,9.28,0,0,1-2.83-6.83,9.89,9.89,0,0,1,1.29-4.95,9.53,9.53,0,0,1,8.34-4.86Zm.08,1.78a7.53,7.53,0,0,0-3.88,1.07,7.68,7.68,0,0,0-2.86,2.89,8.09,8.09,0,0,0-1,4.05,7.6,7.6,0,0,0,2.28,5.59,7.47,7.47,0,0,0,5.49,2.28,7.82,7.82,0,0,0,4-1,7.47,7.47,0,0,0,2.85-2.87,8.11,8.11,0,0,0,1-4,7.91,7.91,0,0,0-1-4,7.66,7.66,0,0,0-2.88-2.86A7.73,7.73,0,0,0,1393.66,445.37Z" transform="translate(-1193 -193)"/><path class="b" d="M1417.46,452.47V447h1.74v5.51h5.51v1.74h-5.51v5.51h-1.74v-5.51H1412v-1.74Z" transform="translate(-1193 -193)"/><path class="b" d="M1434.09,443.81h3.66a8.71,8.71,0,0,1,3.39.52,4.14,4.14,0,0,1,1.87,1.6,4.38,4.38,0,0,1,.69,2.4,4.27,4.27,0,0,1-.61,2.24,4.48,4.48,0,0,1-1.79,1.64,6.89,6.89,0,0,1,2.24,1.16,4.64,4.64,0,0,1,1.22,1.61,4.81,4.81,0,0,1,.44,2,5,5,0,0,1-1.63,3.79,6.1,6.1,0,0,1-4.38,1.55h-5.09Zm1.86,1.82v5.92h1a8.12,8.12,0,0,0,2.8-.36,3,3,0,0,0,1.42-1.13,3,3,0,0,0,.52-1.72,2.43,2.43,0,0,0-.88-2,4.39,4.39,0,0,0-2.8-.72Zm0,7.74v7.17h2.27a8,8,0,0,0,2.95-.4,3.36,3.36,0,0,0,1.5-1.25,3.26,3.26,0,0,0,.57-1.84,3.22,3.22,0,0,0-.8-2.17,4.11,4.11,0,0,0-2.21-1.27,15.62,15.62,0,0,0-3.25-.23Z" transform="translate(-1193 -193)"/><path class="b" d="M1461.88,443.77l8.63,18.56h-2l-2.85-6.08h-8.07l-2.87,6.08h-2.06l8.76-18.56Zm-.23,3.89-3.19,6.77h6.36Z" transform="translate(-1193 -193)"/><path class="b" d="M1479.15,444l1.86,0v11.17a22.93,22.93,0,0,0,.08,2.48,4.08,4.08,0,0,0,.64,1.83,3.79,3.79,0,0,0,1.55,1.23,4.88,4.88,0,0,0,2.11.5,4.17,4.17,0,0,0,1.77-.39,3.92,3.92,0,0,0,1.41-1.08,4.42,4.42,0,0,0,.83-1.67,13.88,13.88,0,0,0,.19-2.89V444l1.86,0v11.19a13.61,13.61,0,0,1-.49,4,5.46,5.46,0,0,1-1.95,2.66,5.59,5.59,0,0,1-3.54,1.13,6.79,6.79,0,0,1-3.86-1.07,5.16,5.16,0,0,1-2.15-2.84,15,15,0,0,1-.34-3.91Z" transform="translate(-1193 -193)"/><path class="b" d="M1501.62,443.79h10.66v1.82h-8.8v5.8h8.71v1.82h-8.71v7.3h8.71v1.82h-10.58Z" transform="translate(-1193 -193)"/><path class="b" d="M1521.15,443.88h3.71a22.48,22.48,0,0,1,4.2.25,4.78,4.78,0,0,1,2.69,1.63,4.64,4.64,0,0,1,1,3.07,5,5,0,0,1-.72,2.67,4.46,4.46,0,0,1-2,1.74,9.41,9.41,0,0,1-3.68.6l6.64,8.59h-2.35l-6.64-8.59h-1v8.59h-1.86Zm1.86,1.82V452l3.19,0a7.88,7.88,0,0,0,2.74-.35,2.86,2.86,0,0,0,1.39-1.13,3.16,3.16,0,0,0,.5-1.74,3,3,0,0,0-.5-1.7A2.8,2.8,0,0,0,1529,446a8,8,0,0,0-2.73-.33Z" transform="translate(-1193 -193)"/><path class="b" d="M1272,514h.87v7.84h3.36v.85H1272Z" transform="translate(-1193 -193)"/><path class="b" d="M1289.47,516.21v6.42h-.83v-1.1a3.51,3.51,0,0,1-1.17.95,3.28,3.28,0,0,1-3.76-.67,3.31,3.31,0,0,1-1-2.4,3.24,3.24,0,0,1,1-2.37,3.19,3.19,0,0,1,2.35-1,3.05,3.05,0,0,1,1.44.34,3.25,3.25,0,0,1,1.13,1v-1.18Zm-3.33.63a2.49,2.49,0,0,0-2.2,1.29,2.6,2.6,0,0,0,0,2.59,2.53,2.53,0,0,0,.93,1,2.45,2.45,0,0,0,1.26.34,2.59,2.59,0,0,0,1.28-.34,2.4,2.4,0,0,0,.93-.92,2.64,2.64,0,0,0,.33-1.31,2.55,2.55,0,0,0-.73-1.86A2.43,2.43,0,0,0,1286.14,516.84Z" transform="translate(-1193 -193)"/><path class="b" d="M1297.08,516.26h.83v1.15a3.43,3.43,0,0,1,1.1-1,2.71,2.71,0,0,1,1.31-.33,2.29,2.29,0,0,1,1.28.37,2.18,2.18,0,0,1,.82,1,5.21,5.21,0,0,1,.27,1.93v3.3h-.83v-3.06a7.83,7.83,0,0,0-.09-1.48,1.61,1.61,0,0,0-.55-1,1.68,1.68,0,0,0-1.07-.32,2,2,0,0,0-1.35.5,2.31,2.31,0,0,0-.78,1.23,8.46,8.46,0,0,0-.12,1.74v2.35h-.83Z" transform="translate(-1193 -193)"/><path class="b" d="M1316.5,513.77v8.92h-.83v-1.1a3.49,3.49,0,0,1-1.16.95,3.24,3.24,0,0,1-3.73-.67,3.32,3.32,0,0,1-1-2.4,3.25,3.25,0,0,1,1-2.37,3.16,3.16,0,0,1,2.34-1,3,3,0,0,1,1.43.34,3.25,3.25,0,0,1,1.12,1v-3.68Zm-3.31,3.12a2.46,2.46,0,0,0-1.26.34,2.48,2.48,0,0,0-.92,1,2.62,2.62,0,0,0,0,2.59,2.52,2.52,0,0,0,.93,1,2.41,2.41,0,0,0,1.25.34,2.55,2.55,0,0,0,1.27-.34,2.39,2.39,0,0,0,.93-.92,2.66,2.66,0,0,0,.32-1.31,2.56,2.56,0,0,0-.73-1.86A2.4,2.4,0,0,0,1313.19,516.89Z" transform="translate(-1193 -193)"/><path class="b" d="M1327.32,517l-.53.55a1.92,1.92,0,0,0-1.3-.65,1,1,0,0,0-.69.27.82.82,0,0,0-.29.62.92.92,0,0,0,.24.6,3.33,3.33,0,0,0,1,.68,3.76,3.76,0,0,1,1.26.92,1.67,1.67,0,0,1,.33,1,1.81,1.81,0,0,1-.56,1.34,1.91,1.91,0,0,1-1.39.55,2.47,2.47,0,0,1-1.06-.24,2.3,2.3,0,0,1-.84-.65l.52-.59a1.81,1.81,0,0,0,1.34.71,1.21,1.21,0,0,0,.85-.32,1,1,0,0,0,.35-.75,1,1,0,0,0-.23-.63,3.73,3.73,0,0,0-1-.69,3.32,3.32,0,0,1-1.19-.89,1.66,1.66,0,0,1-.31-1,1.62,1.62,0,0,1,.5-1.22,1.75,1.75,0,0,1,1.27-.49A2.64,2.64,0,0,1,1327.32,517Z" transform="translate(-1193 -193)"/><path class="b" d="M1340.68,517.6l-.66.41a2.74,2.74,0,0,0-2.32-1.13,2.69,2.69,0,0,0-1.95.75,2.46,2.46,0,0,0-.77,1.83,2.59,2.59,0,0,0,.36,1.32,2.49,2.49,0,0,0,1,1,2.84,2.84,0,0,0,1.39.34,2.81,2.81,0,0,0,2.31-1.13l.66.43a3.12,3.12,0,0,1-1.24,1.09,3.93,3.93,0,0,1-1.77.39,3.5,3.5,0,0,1-2.53-1,3.14,3.14,0,0,1-1-2.35,3.35,3.35,0,0,1,.47-1.73,3.32,3.32,0,0,1,1.29-1.25,3.78,3.78,0,0,1,1.84-.45,3.92,3.92,0,0,1,1.23.2,3.41,3.41,0,0,1,1,.51A2.78,2.78,0,0,1,1340.68,517.6Z" transform="translate(-1193 -193)"/><path class="b" d="M1354.39,516.25v6.42h-.83v-1.1a3.51,3.51,0,0,1-1.17.95,3.28,3.28,0,0,1-3.76-.67,3.31,3.31,0,0,1-1-2.4,3.24,3.24,0,0,1,1-2.37,3.19,3.19,0,0,1,2.35-1,3.06,3.06,0,0,1,1.44.34,3.25,3.25,0,0,1,1.13,1v-1.18Zm-3.33.63a2.49,2.49,0,0,0-2.2,1.29,2.6,2.6,0,0,0,0,2.59,2.53,2.53,0,0,0,.93,1,2.45,2.45,0,0,0,1.26.34,2.59,2.59,0,0,0,1.28-.34,2.4,2.4,0,0,0,.93-.92,2.64,2.64,0,0,0,.33-1.31,2.55,2.55,0,0,0-.73-1.86A2.43,2.43,0,0,0,1351.06,516.88Z" transform="translate(-1193 -193)"/><path class="b" d="M1361.95,516.22h.83v1.18a3.3,3.3,0,0,1,1.13-1,3,3,0,0,1,1.43-.34,3.18,3.18,0,0,1,2.35,1,3.25,3.25,0,0,1,1,2.37,3.31,3.31,0,0,1-1,2.4,3.26,3.26,0,0,1-3.75.67,3.54,3.54,0,0,1-1.16-1V525h-.83Zm3.32.63a2.41,2.41,0,0,0-1.8.75,2.55,2.55,0,0,0-.73,1.86,2.64,2.64,0,0,0,.33,1.31,2.39,2.39,0,0,0,.93.92,2.59,2.59,0,0,0,1.28.34,2.41,2.41,0,0,0,1.25-.34,2.52,2.52,0,0,0,.93-1,2.61,2.61,0,0,0,0-2.59,2.48,2.48,0,0,0-2.19-1.29Z" transform="translate(-1193 -193)"/><path class="b" d="M1381.3,520.5l.7.37a3.83,3.83,0,0,1-.79,1.09,3.13,3.13,0,0,1-1,.63,3.52,3.52,0,0,1-1.27.22,3.08,3.08,0,0,1-2.46-1,3.47,3.47,0,0,1-.89-2.33,3.43,3.43,0,0,1,.75-2.18,3.08,3.08,0,0,1,2.55-1.21,3.19,3.19,0,0,1,2.63,1.24,3.44,3.44,0,0,1,.71,2.19h-5.8a2.61,2.61,0,0,0,.72,1.84,2.28,2.28,0,0,0,1.71.72,2.74,2.74,0,0,0,1-.17,2.53,2.53,0,0,0,.79-.45A3.88,3.88,0,0,0,1381.3,520.5Zm0-1.72a2.69,2.69,0,0,0-.48-1.05,2.26,2.26,0,0,0-.84-.63,2.58,2.58,0,0,0-1.1-.24,2.37,2.37,0,0,0-1.63.6,2.73,2.73,0,0,0-.75,1.32Z" transform="translate(-1193 -193)"/><path class="b" d="M1402.48,514l4.05,8.69h-1l-1.34-2.86h-3.75l-1.35,2.86h-1l4.11-8.69Zm-.12,1.85-1.48,3.13h3Z" transform="translate(-1193 -193)"/><path class="b" d="M1413.13,516.29h.83v.94a2.92,2.92,0,0,1,.81-.83,1.61,1.61,0,0,1,.88-.27,1.53,1.53,0,0,1,.74.22l-.43.7a1.18,1.18,0,0,0-.44-.11,1.22,1.22,0,0,0-.81.34,2.14,2.14,0,0,0-.59,1.05,9.94,9.94,0,0,0-.16,2.22v2.17h-.83Z" transform="translate(-1193 -193)"/><path class="b" d="M1429,517.6l-.66.41a2.74,2.74,0,0,0-2.32-1.13,2.69,2.69,0,0,0-1.95.75,2.46,2.46,0,0,0-.77,1.83,2.6,2.6,0,0,0,.36,1.32,2.48,2.48,0,0,0,1,1,3,3,0,0,0,3.7-.79l.66.43a3.13,3.13,0,0,1-1.24,1.09,3.93,3.93,0,0,1-1.77.39,3.5,3.5,0,0,1-2.53-1,3.14,3.14,0,0,1-1-2.35,3.36,3.36,0,0,1,.47-1.73,3.33,3.33,0,0,1,1.29-1.25,3.78,3.78,0,0,1,1.84-.45,3.92,3.92,0,0,1,1.23.2,3.42,3.42,0,0,1,1,.51A2.79,2.79,0,0,1,1429,517.6Z" transform="translate(-1193 -193)"/><path class="b" d="M1436.28,513.77h.83v3.65a3.51,3.51,0,0,1,1.11-1,2.7,2.7,0,0,1,1.31-.33,2.29,2.29,0,0,1,1.28.37,2.18,2.18,0,0,1,.82,1,5.2,5.2,0,0,1,.27,1.93v3.3h-.83v-3.06a7.77,7.77,0,0,0-.09-1.48,1.68,1.68,0,0,0-.56-1,1.66,1.66,0,0,0-1.06-.32,2,2,0,0,0-1.34.5,2.32,2.32,0,0,0-.78,1.23,8.48,8.48,0,0,0-.12,1.74v2.35h-.83Z" transform="translate(-1193 -193)"/><path class="b" d="M1449.14,513.81a.65.65,0,0,0-.21.48.64.64,0,0,0,.21.48.68.68,0,0,0,.49.2.69.69,0,0,0,.5-.2.64.64,0,0,0,.21-.48.65.65,0,0,0-.21-.48.69.69,0,0,0-.5-.2A.68.68,0,0,0,1449.14,513.81Zm.08,8.88h.83v-6.42h-.83Z" transform="translate(-1193 -193)"/><path class="b" d="M1458.18,513.87h.83v2.39h1.32V517H1459v5.72h-.83V517H1457v-.71h1.13Z" transform="translate(-1193 -193)"/><path class="b" d="M1531.77,520.54l.7.37a3.8,3.8,0,0,1-.79,1.09,3.13,3.13,0,0,1-1,.63,3.52,3.52,0,0,1-1.27.22,3.07,3.07,0,0,1-2.46-1,3.47,3.47,0,0,1-.89-2.33,3.43,3.43,0,0,1,.75-2.18,3.08,3.08,0,0,1,2.55-1.21,3.19,3.19,0,0,1,2.63,1.24,3.44,3.44,0,0,1,.71,2.18h-5.8a2.62,2.62,0,0,0,.72,1.84,2.28,2.28,0,0,0,1.71.72,2.74,2.74,0,0,0,1-.17,2.5,2.5,0,0,0,.79-.45A3.85,3.85,0,0,0,1531.77,520.54Zm0-1.72a2.69,2.69,0,0,0-.48-1.05,2.28,2.28,0,0,0-.84-.63,2.59,2.59,0,0,0-1.1-.24,2.38,2.38,0,0,0-1.63.6,2.73,2.73,0,0,0-.75,1.32Z" transform="translate(-1193 -193)"/><path class="b" d="M1487,517.6l-.66.41a2.74,2.74,0,0,0-2.32-1.13,2.68,2.68,0,0,0-1.95.75,2.47,2.47,0,0,0-.78,1.83,2.61,2.61,0,0,0,.36,1.32,2.49,2.49,0,0,0,1,1,2.84,2.84,0,0,0,1.39.34,2.81,2.81,0,0,0,2.31-1.13l.66.43a3.12,3.12,0,0,1-1.24,1.09,3.94,3.94,0,0,1-1.77.39,3.51,3.51,0,0,1-2.53-1,3.14,3.14,0,0,1-1-2.35,3.35,3.35,0,0,1,.47-1.73,3.31,3.31,0,0,1,1.29-1.25,3.77,3.77,0,0,1,1.84-.45,3.92,3.92,0,0,1,1.23.2,3.4,3.4,0,0,1,1,.51A2.79,2.79,0,0,1,1487,517.6Z" transform="translate(-1193 -193)"/><path class="b" d="M1495,513.87h.83v2.39h1.32V517h-1.32v5.72H1495V517h-1.13v-.71H1495Z" transform="translate(-1193 -193)"/><path class="b" d="M1503.93,516.27h.83v3a6.3,6.3,0,0,0,.12,1.51,1.69,1.69,0,0,0,.69.93,2.12,2.12,0,0,0,1.21.34,2.07,2.07,0,0,0,1.19-.33,1.7,1.7,0,0,0,.68-.88,6.11,6.11,0,0,0,.13-1.57v-3h.83v3.15a4.93,4.93,0,0,1-.31,2,2.37,2.37,0,0,1-.94,1.05,3,3,0,0,1-1.58.38,3,3,0,0,1-1.58-.38,2.35,2.35,0,0,1-.95-1.06,5.13,5.13,0,0,1-.31-2.05Z" transform="translate(-1193 -193)"/><path class="b" d="M1516.8,516.27h.83v.94a3,3,0,0,1,.81-.83,1.61,1.61,0,0,1,.88-.27,1.52,1.52,0,0,1,.74.22l-.43.7a1.19,1.19,0,0,0-.44-.11,1.22,1.22,0,0,0-.81.34,2.14,2.14,0,0,0-.59,1.05,9.94,9.94,0,0,0-.16,2.22v2.17h-.83Z" transform="translate(-1193 -193)"/><path class="b" d="M1472.66,520.5l.7.37a3.85,3.85,0,0,1-.79,1.09,3.14,3.14,0,0,1-1,.63,3.52,3.52,0,0,1-1.27.22,3.08,3.08,0,0,1-2.46-1,3.47,3.47,0,0,1-.89-2.33,3.43,3.43,0,0,1,.75-2.18,3.08,3.08,0,0,1,2.55-1.21,3.19,3.19,0,0,1,2.63,1.24,3.44,3.44,0,0,1,.71,2.19h-5.8a2.62,2.62,0,0,0,.72,1.84,2.29,2.29,0,0,0,1.71.72,2.74,2.74,0,0,0,1-.17,2.53,2.53,0,0,0,.79-.45A3.88,3.88,0,0,0,1472.66,520.5Zm0-1.72a2.69,2.69,0,0,0-.48-1.05,2.26,2.26,0,0,0-.84-.63,2.58,2.58,0,0,0-1.1-.24,2.37,2.37,0,0,0-1.63.6,2.73,2.73,0,0,0-.75,1.32Z" transform="translate(-1193 -193)"/></svg>