<?xml version="1.0" encoding="utf-8"?>
<!-- Generator: Adobe Illustrator 22.0.1, SVG Export Plug-In . SVG Version: 6.00 Build 0)  -->
<svg version="1.1" id="Layer_1" xmlns="http://www.w3.org/2000/svg" xmlns:xlink="http://www.w3.org/1999/xlink" x="0px" y="0px"
	 viewBox="0 0 585 525.6" style="enable-background:new 0 0 585 525.6;" xml:space="preserve">
<style type="text/css">
	.st0{fill:#FD5000;}
	.st1{fill:#F26322;}
	.st2{fill:#F58131;}
	.st3{fill:#22A8E0;}
	.st4{fill:#405C9E;}
	.st5{fill:#1F72BA;}
	.st6{fill:#C02128;}
	.st7{fill:#F26822;}
	.st8{fill:#4D4D4E;}
	.st9{fill:#FFFFFF;}
	.st10{fill:#CCCCCC;}
	.st11{fill:#010101;}
</style>
<title>sprite-pad</title>
<polygon class="st0" points="399,0 443,25.4 443,76.2 399,101.6 355,76.2 355,25.4 "/>
<path class="st1" d="M259,160.4v16.8l-14.5,8.4l-14.5-8.4v-16.8l14.5-8.4L259,160.4z"/>
<polygon class="st1" points="230.5,138.8 230.5,122.7 244.5,114.6 258.5,122.7 258.5,138.8 244.5,146.9 "/>
<path class="st1" d="M244.5,115.2L258,123v15.6l-13.5,7.8l-13.5-7.8V123L244.5,115.2 M244.5,114l-14.5,8.4v16.7l14.5,8.4l14.5-8.4
	v-16.7L244.5,114L244.5,114z"/>
<polygon class="st1" points="230.5,100.8 230.5,84.7 244.5,76.6 258.5,84.7 258.5,100.8 244.5,108.9 "/>
<path class="st1" d="M244.5,77.2L258,85v15.6l-13.5,7.8l-13.5-7.8V85L244.5,77.2 M244.5,76L230,84.4v16.8l14.5,8.4l14.5-8.4V84.4
	L244.5,76L244.5,76L244.5,76z"/>
<polygon class="st1" points="230.5,62.8 230.5,46.7 244.5,38.6 258.5,46.7 258.5,62.8 244.5,70.9 "/>
<path class="st1" d="M244.5,39.2L258,47v15.6l-13.5,7.8L231,62.5V46.9L244.5,39.2 M244.5,38L230,46.4v16.8l14.5,8.4l14.5-8.4V46.4
	L244.5,38L244.5,38L244.5,38z"/>
<path class="st1" d="M259,8.4v16.8l-14.5,8.4L230,25.1V8.4L244.5,0L259,8.4z"/>
<polygon class="st2" points="244.5,0 230,8.4 230,8.4 259,25.1 259,8.4 "/>
<path class="st1" d="M178.5,1.2L192,8.9v15.6l-13.5,7.8L165,24.6V8.9L178.5,1.2 M178.5,0L164,8.4v16.8l14.5,8.4l14.5-8.4V8.4
	L178.5,0L178.5,0L178.5,0z"/>
<path class="st3" d="M26.8,63.4c-0.6,0.3-1.3,0.4-1.9,0.5c0.7-0.4,1.2-1.1,1.5-1.8c-0.7,0.4-1.4,0.7-2.1,0.8
	c-1.3-1.3-3.4-1.4-4.7-0.1c-0.8,0.8-1.2,2-1,3.1c-2.7-0.1-5.2-1.4-6.9-3.5c-0.9,1.5-0.5,3.5,1,4.4c-0.5,0-1-0.2-1.5-0.4l0,0
	c0,1.6,1.1,2.9,2.7,3.3c-0.5,0.1-1,0.2-1.5,0.1c0.4,1.4,1.7,2.3,3.1,2.3c-1.2,0.9-2.6,1.4-4.1,1.4c-0.3,0-0.5,0-0.8,0
	c4.4,2.8,10.3,1.5,13.1-2.9c1-1.5,1.5-3.3,1.5-5.1c0-0.1,0-0.3,0-0.4C25.7,64.6,26.3,64.1,26.8,63.4z"/>
<path class="st4" d="M18.5,1.2L36,11.3v20.2L18.5,41.6L1,31.5V11.3L18.5,1.2 M18.5,0L0,10.7V32l18.5,10.7L37,32V10.7L18.5,0L18.5,0z
	"/>
<path class="st4" d="M22.6,11.9V15h-1.8c-0.8-0.2-1.5,0.3-1.7,1.1c0,0.2,0,0.4,0,0.6v2.2h3.4l-0.5,3.4h-3v8.8h-3.5v-8.9h-3v-3.4h3
	v-2.5c0-2.9,1.8-4.5,4.4-4.5C20.9,11.8,21.8,11.8,22.6,11.9z"/>
<path class="st4" d="M59.5,0L41,10.7V32l18.5,10.7L78,32V10.7L59.5,0z M63.7,15h-1.8c-0.8-0.2-1.5,0.3-1.7,1.1c0,0.2,0,0.4,0,0.6
	v2.2h3.4l-0.5,3.4h-3v8.8h-3.5v-8.9h-3v-3.4h3v-2.5c0-2.9,1.8-4.5,4.4-4.5c0.9,0,1.8,0,2.7,0.1V15z"/>
<path class="st1" d="M100.5,1.2L118,11.3v20.2l-17.5,10.1L83,31.5V11.3L100.5,1.2 M100.5,0L82,10.7V32l18.5,10.7L119,32V10.7
	L100.5,0C100.5,0,100.5,0,100.5,0z"/>
<path class="st1" d="M141.5,0L123,10.7V32l18.5,10.7L160,32V10.7L141.5,0z"/>
<path class="st3" d="M18.5,48.2L36,58.3v20.2L18.5,88.6L1,78.5V58.3L18.5,48.2 M18.5,47L0,57.7V79l18.5,10.7L37,79V57.7L18.5,47
	L18.5,47z"/>
<path class="st3" d="M59.5,47L41,57.7V79l18.5,10.7L78,79V57.7L59.5,47z M66.1,65.2c0,0.1,0,0.3,0,0.4c0,5.2-4.2,9.5-9.4,9.5
	c-1.8,0-3.6-0.5-5.1-1.5c0.3,0,0.5,0,0.8,0c1.5,0,3-0.5,4.1-1.4c-1.4,0-2.7-1-3.1-2.3c0.5,0.1,1,0.1,1.5-0.1
	c-1.6-0.3-2.7-1.7-2.7-3.3l0,0c0.5,0.3,1,0.4,1.5,0.4c-1.5-1-1.9-2.9-1-4.4c1.7,2.1,4.2,3.3,6.8,3.5c-0.4-1.8,0.7-3.6,2.5-4
	c1.1-0.2,2.3,0.1,3.1,1c0.7-0.1,1.5-0.4,2.1-0.8C67,63,66.5,63.6,65.8,64c0.7-0.1,1.3-0.3,1.9-0.5C67.3,64.1,66.7,64.7,66.1,65.2
	L66.1,65.2z"/>
<path class="st1" d="M108.8,63.4c-0.6,0.3-1.3,0.4-1.9,0.5c0.7-0.4,1.2-1.1,1.5-1.8c-0.7,0.4-1.4,0.7-2.1,0.8
	c-1.3-1.3-3.4-1.4-4.7-0.1c-0.8,0.8-1.2,2-1,3.1c-2.7-0.1-5.2-1.4-6.9-3.5c-0.9,1.5-0.5,3.5,1,4.4c-0.5,0-1-0.2-1.5-0.4l0,0
	c0,1.6,1.1,2.9,2.7,3.3c-0.5,0.1-1,0.2-1.5,0.1c0.4,1.4,1.7,2.3,3.1,2.3c-1.2,0.9-2.6,1.4-4.1,1.4c-0.3,0-0.5,0-0.8,0
	c4.4,2.8,10.3,1.5,13.1-2.9c1-1.5,1.5-3.3,1.5-5.1c0-0.1,0-0.3,0-0.4C107.7,64.6,108.3,64.1,108.8,63.4z"/>
<path class="st1" d="M100.5,48.2L118,58.3v20.2l-17.5,10.1L83,78.5V58.3L100.5,48.2 M100.5,47L82,57.7V79l18.5,10.7L119,79V57.7
	L100.5,47L100.5,47z"/>
<path class="st1" d="M141.5,47L123,57.7V79l18.5,10.7L160,79V57.7L141.5,47z"/>
<path class="st5" d="M18.5,95.2L36,105.3v20.2l-17.5,10.1L1,125.5v-20.2L18.5,95.2 M18.5,94L0,104.7V126l18.5,10.7L37,126v-21.3
	L18.5,94L18.5,94z"/>
<path class="st5" d="M59.5,94L41,104.7V126l18.5,10.7L78,126v-21.3L59.5,94z"/>
<path class="st1" d="M100.5,95.2l17.5,10.1v20.2l-17.5,10.1L83,125.5v-20.2L100.5,95.2 M100.5,94L82,104.7V126l18.5,10.7L119,126
	v-21.3L100.5,94L100.5,94z"/>
<path class="st1" d="M141.5,94L123,104.7V126l18.5,10.7L160,126v-21.3L141.5,94z"/>
<path class="st6" d="M18.5,142.2L36,152.3v20.2l-17.5,10.1L1,172.5v-20.2L18.5,142.2 M18.5,141L0,151.7V173l18.5,10.7L37,173v-21.3
	L18.5,141L18.5,141z"/>
<path class="st6" d="M59.5,141L41,151.7V173l18.5,10.7L78,173v-21.3L59.5,141z"/>
<path class="st1" d="M100.5,142.2l17.5,10.1v20.2l-17.5,10.1L83,172.5v-20.2L100.5,142.2 M100.5,141L82,151.7V173l18.5,10.7L119,173
	v-21.3L100.5,141L100.5,141z"/>
<path class="st1" d="M141.5,141L123,151.7V173l18.5,10.7L160,173v-21.3L141.5,141z"/>
<path class="st7" d="M18.5,189.2L36,199.3v20.2l-17.5,10.1L1,219.5v-20.2L18.5,189.2 M18.5,188L0,198.7V220l18.5,10.7L37,220v-21.3
	L18.5,188L18.5,188z"/>
<path class="st7" d="M59.5,188L41,198.7V220l18.5,10.7L78,220v-21.3L59.5,188z"/>
<path class="st8" d="M18.5,236.2L36,246.3v20.2l-17.5,10.1L1,266.5v-20.2L18.5,236.2 M18.5,235L0,245.7V267l18.5,10.7L37,267v-21.3
	L18.5,235L18.5,235z"/>
<path class="st8" d="M59.5,235L41,245.7V267l18.5,10.7L78,267v-21.3L59.5,235z"/>
<path class="st1" d="M106.1,12.7c1.8,0,3.3,1.5,3.3,3.3v10.9c0,1.8-1.5,3.3-3.3,3.3H104v-6.8h2.3l0.3-2.6H104v-1.7
	c-0.1-0.6,0.3-1.2,0.9-1.3c0.1,0,0.3,0,0.4,0h1.4v-2.4c-0.7-0.1-1.3-0.1-2-0.1c-1.8-0.1-3.3,1.2-3.4,2.9c0,0.2,0,0.4,0,0.5v2H99v2.6
	h2.3v6.8h-6.1c-1.8,0-3.3-1.5-3.3-3.3V16c0-1.8,1.5-3.3,3.3-3.3H106.1z"/>
<path class="st9" d="M147,12.7c1.8,0,3.3,1.5,3.3,3.3v10.9c0,1.8-1.5,3.3-3.3,3.3h-2.1v-6.8h2.3l0.3-2.6h-2.6v-1.7
	c-0.1-0.6,0.3-1.2,0.9-1.3c0.1,0,0.3,0,0.4,0h1.4v-2.4c-0.7-0.1-1.3-0.1-2-0.1c-1.8-0.1-3.3,1.2-3.4,2.9c0,0.2,0,0.4,0,0.5v2h-2.3
	v2.6h2.3v6.8H136c-1.8,0-3.3-1.5-3.3-3.3V16c0-1.8,1.5-3.3,3.3-3.3H147z"/>
<path class="st5" d="M14.1,112.6v10.6h-3.5v-10.6H14.1z M14.4,109.3c0,1-0.8,1.8-1.8,1.8c-0.1,0-0.1,0-0.2,0l0,0
	c-1,0.1-1.9-0.6-2-1.7c0-0.1,0-0.1,0-0.2c0-1,0.8-1.8,1.9-1.8c0,0,0.1,0,0.1,0c1-0.1,1.9,0.6,2,1.7
	C14.4,109.2,14.4,109.3,14.4,109.3z M26.9,117.2v6.1h-3.5v-5.7c0-1.4-0.5-2.4-1.8-2.4c-0.8,0-1.5,0.5-1.8,1.3
	c-0.1,0.3-0.1,0.6-0.1,0.9v5.9h-3.5c0-9.6,0-10.6,0-10.6h3.5v1.6l0,0c0.6-1.2,1.9-1.8,3.2-1.8C25.1,112.4,26.9,113.9,26.9,117.2z"/>
<path class="st9" d="M55.1,112.6v10.6h-3.5v-10.6H55.1z M55.4,109.3c0,1-0.8,1.8-1.8,1.8c-0.1,0-0.1,0-0.2,0l0,0
	c-1,0.1-1.9-0.6-2-1.7c0-0.1,0-0.1,0-0.2c0-1,0.8-1.8,1.9-1.8c0,0,0.1,0,0.1,0c1-0.1,1.9,0.6,2,1.7
	C55.4,109.2,55.4,109.3,55.4,109.3z M67.9,117.2v6.1h-3.5v-5.7c0-1.4-0.5-2.4-1.8-2.4c-0.8,0-1.5,0.5-1.8,1.3
	c-0.1,0.3-0.1,0.6-0.1,0.9v5.9h-3.5c0-9.6,0-10.6,0-10.6h3.5v1.6l0,0c0.6-1.2,1.9-1.8,3.2-1.8C66.2,112.4,67.9,113.9,67.9,117.2z"/>
<path class="st1" d="M98.5,118l5.5-2.9l-5.5-2.9V118z M100.6,108.2c4.3,0,7.2,0.2,7.2,0.2c0.8,0,1.5,0.3,2.1,0.9
	c0.5,0.6,0.8,1.3,0.8,2c0.1,1.1,0.2,2.2,0.2,3.3v1.6c0,1.1-0.1,2.2-0.2,3.3c-0.1,0.7-0.3,1.4-0.8,2c-0.5,0.5-1.3,0.9-2.1,0.9
	c0,0-2.9,0.2-7.2,0.2l0,0c-5.3,0-7-0.2-7-0.2c-0.8,0-1.6-0.3-2.3-0.9c-0.5-0.6-0.7-1.3-0.8-2c-0.1-1.1-0.2-2.2-0.2-3.3v-1.6
	c0-1.1,0.1-2.2,0.2-3.3c0.1-0.7,0.3-1.4,0.8-2c0.5-0.6,1.3-0.9,2.1-0.9C93.4,108.4,96.3,108.2,100.6,108.2L100.6,108.2L100.6,108.2z
	"/>
<path class="st9" d="M139.4,118l5.5-2.9l-5.5-2.9V118z M141.5,108.2c4.3,0,7.2,0.2,7.2,0.2c0.8,0,1.5,0.3,2.1,0.9
	c0.5,0.6,0.8,1.3,0.8,2c0.1,1.1,0.2,2.2,0.2,3.3v1.6c0,1.1-0.1,2.2-0.2,3.3c-0.1,0.7-0.3,1.4-0.8,2c-0.5,0.5-1.3,0.9-2.1,0.9
	c0,0-2.9,0.2-7.2,0.2l0,0c-5.3,0-7-0.2-7-0.2c-0.8,0-1.6-0.3-2.3-0.9c-0.5-0.6-0.7-1.3-0.8-2c-0.1-1.1-0.2-2.2-0.2-3.3v-1.6
	c0-1.1,0.1-2.2,0.2-3.3c0.1-0.7,0.3-1.4,0.8-2c0.5-0.6,1.3-0.9,2.1-0.9C134.3,108.4,137.2,108.2,141.5,108.2L141.5,108.2
	L141.5,108.2z"/>
<path class="st6" d="M11.2,159.7c0-4.2,3.9-6.8,7.8-6.8c3.6,0,6.9,2.5,6.9,6.3c0,3.6-1.8,7.5-5.9,7.5c-1.1,0-2.1-0.5-2.6-1.4
	c-0.9,3.4-0.8,4-2.7,6.6l-0.2,0.1l-0.1-0.1c-0.1-0.7-0.2-1.4-0.2-2.1c0-2.3,1.1-5.7,1.6-8c-0.3-0.6-0.4-1.3-0.4-1.9
	c0-1.2,0.8-2.6,2.1-2.6c0.8,0,1.5,0.6,1.5,1.4c0,0.1,0,0.2,0,0.2c0,1.5-1,2.9-1,4.3c0,0.9,0.8,1.7,1.7,1.7c0,0,0,0,0.1,0
	c2.6,0,3.4-3.8,3.4-5.8c0-2.7-1.9-4.2-4.5-4.2c-2.8-0.1-5.2,2.1-5.3,4.9c0,0.1,0,0.2,0,0.3c0,1.5,0.9,2.2,0.9,2.6s-0.2,1.4-0.6,1.4
	c-0.1,0-0.1,0-0.2,0C11.8,163.4,11.2,161.2,11.2,159.7z"/>
<path class="st9" d="M52.3,159.7c0-4.2,3.9-6.8,7.8-6.8c3.6,0,6.9,2.5,6.9,6.3c0,3.6-1.8,7.5-5.9,7.5c-1.1,0-2.1-0.5-2.6-1.4
	c-0.9,3.4-0.8,4-2.7,6.6l-0.2,0.1l-0.1-0.1c-0.1-0.7-0.2-1.4-0.2-2.1c0-2.3,1.1-5.7,1.6-8c-0.3-0.6-0.4-1.3-0.4-1.9
	c0-1.2,0.8-2.6,2.1-2.6c0.8,0,1.5,0.6,1.5,1.4c0,0.1,0,0.1,0,0.2c0,1.5-1,2.9-1,4.3c0,0.9,0.8,1.7,1.7,1.7c0,0,0,0,0.1,0
	c2.6,0,3.4-3.8,3.4-5.8c0-2.7-1.9-4.2-4.5-4.2c-2.8-0.1-5.2,2.1-5.3,4.9c0,0.1,0,0.2,0,0.3c0,1.5,0.9,2.2,0.9,2.6s-0.2,1.4-0.6,1.4
	c-0.1,0-0.1,0-0.2,0C52.9,163.4,52.3,161.2,52.3,159.7z"/>
<path class="st7" d="M21.4,208.5c0.2,3.6-2.5,6.6-6.1,6.9c-0.2,0-0.4,0-0.7,0c-3.9,0-7-3.1-7-7s3.1-7,7-7c1.7,0,3.4,0.6,4.7,1.8
	l-1.9,1.8c-0.8-0.7-1.8-1.1-2.8-1.1c-2.4,0.1-4.3,2.2-4.2,4.6c0.1,2.3,1.9,4.1,4.2,4.2c1.9,0.1,3.6-1.1,4-3h-4v-2.4h6.6
	C21.3,207.8,21.4,208.1,21.4,208.5z M29.7,207.4v2h-2v2h-2v-2h-2v-2h2v-2h2v2H29.7z"/>
<path class="st9" d="M62.4,208.5c0.2,3.6-2.5,6.6-6.1,6.9c-0.2,0-0.4,0-0.7,0c-3.9,0-7-3.1-7-7s3.1-7,7-7c1.7,0,3.4,0.6,4.7,1.8
	l-1.9,1.8c-0.8-0.7-1.8-1.1-2.8-1.1c-2.4,0.1-4.3,2.2-4.2,4.6c0.1,2.3,1.9,4.1,4.2,4.2c1.9,0.1,3.6-1.1,4-3h-4v-2.4h6.6
	C62.3,207.8,62.4,208.1,62.4,208.5z M70.7,207.4v2h-2v2h-2v-2h-2v-2h2v-2h2v2H70.7z"/>
<path class="st8" d="M26.3,261.9v-7.8c-0.2,0.2-0.4,0.5-0.7,0.7c-1.5,1.1-2.9,2.3-4.3,3.4c-0.7,0.8-1.7,1.3-2.8,1.4l0,0
	c-1.1-0.1-2-0.6-2.8-1.4c-1.4-1.2-2.9-2.3-4.3-3.4c-0.3-0.2-0.5-0.4-0.7-0.7v7.8c0,0.2,0.1,0.3,0.3,0.3h15
	C26.2,262.2,26.3,262.1,26.3,261.9z M26.3,251.2c0-0.3,0.1-0.7-0.3-0.7H11c-0.2,0-0.3,0.1-0.3,0.3l0,0c0,1.1,0.6,2.2,1.5,2.9
	l4.1,3.2c0.5,0.4,1.5,1.4,2.2,1.4l0,0c0.7,0,1.7-0.9,2.2-1.4l4.1-3.2C25.6,253.1,26.1,252.2,26.3,251.2L26.3,251.2z M27.6,250.8
	v11.1c0,0.9-0.7,1.6-1.6,1.6c0,0,0,0,0,0H11c-0.9,0-1.6-0.7-1.6-1.6l0,0v-11.1c0-0.9,0.7-1.6,1.6-1.6c0,0,0,0,0,0h15
	C26.9,249.2,27.6,249.9,27.6,250.8L27.6,250.8z"/>
<path class="st9" d="M67.5,261.9v-7.8c-0.2,0.2-0.4,0.5-0.7,0.7c-1.5,1.1-2.9,2.3-4.3,3.4c-0.7,0.8-1.7,1.3-2.8,1.4l0,0
	c-1.1-0.1-2-0.6-2.8-1.4c-1.4-1.2-2.9-2.3-4.3-3.4c-0.3-0.2-0.5-0.4-0.7-0.7v7.8c0,0.2,0.1,0.3,0.3,0.3h15
	C67.3,262.2,67.5,262.1,67.5,261.9z M67.5,251.2c0-0.3,0.1-0.7-0.3-0.7h-15c-0.2,0-0.3,0.1-0.3,0.3l0,0c0,1.1,0.6,2.2,1.5,2.9
	l4.1,3.2c0.5,0.4,1.5,1.4,2.2,1.4l0,0c0.7,0,1.7-0.9,2.2-1.4l4.2-3.2C66.8,253.1,67.3,252.2,67.5,251.2L67.5,251.2z M68.8,250.8
	v11.1c0,0.9-0.7,1.6-1.6,1.6l0,0h-15c-0.9,0-1.6-0.7-1.6-1.6l0,0v-11.1c0-0.9,0.7-1.6,1.6-1.6c0,0,0,0,0,0h15
	C68,249.2,68.8,249.9,68.8,250.8L68.8,250.8L68.8,250.8z"/>
<path class="st1" d="M103.7,162.4c0-1.7-1.3-3-3-3s-3,1.3-3,3s1.3,3,3,3S103.7,164,103.7,162.4z M105.3,162.4c0,2.6-2.1,4.7-4.7,4.7
	s-4.7-2.1-4.7-4.7c0-2.6,2.1-4.7,4.7-4.7h0C103.2,157.7,105.3,159.8,105.3,162.4C105.3,162.3,105.3,162.4,105.3,162.4z M106.6,157.5
	c0,0.6-0.5,1.1-1.1,1.1c-0.6,0-1.1-0.5-1.1-1.1c0-0.6,0.5-1.1,1.1-1.1h0C106.1,156.4,106.6,156.9,106.6,157.5
	C106.6,157.5,106.6,157.5,106.6,157.5L106.6,157.5z M100.6,154.9c-1.3,0-4.2-0.1-5.4,0.4c-0.8,0.3-1.4,1-1.7,1.8
	c-0.5,1.2-0.4,4-0.4,5.4s-0.1,4.2,0.4,5.4c0.3,0.8,0.9,1.4,1.7,1.7c1.2,0.5,4,0.4,5.4,0.4s4.2,0.1,5.4-0.4c0.8-0.3,1.4-0.9,1.7-1.7
	c0.5-1.2,0.4-4,0.4-5.4s0.1-4.2-0.4-5.4c-0.3-0.8-0.9-1.4-1.7-1.7C104.8,154.8,102,154.9,100.6,154.9L100.6,154.9z M109.7,162.4
	c0,1.3,0,2.5-0.1,3.8c0.2,2.8-1.9,5.1-4.7,5.3c-0.2,0-0.4,0-0.6,0c-1.3,0.1-2.5,0.1-3.8,0.1s-2.5,0-3.8-0.1
	c-2.8,0.2-5.1-1.9-5.3-4.7c0-0.2,0-0.4,0-0.6c-0.1-1.3-0.1-2.5-0.1-3.8s0-2.5,0.1-3.8c-0.2-2.8,1.9-5.1,4.7-5.3c0.2,0,0.4,0,0.6,0
	c1.3-0.1,2.5-0.1,3.8-0.1s2.5,0,3.8,0.1c2.8-0.2,5.1,1.9,5.3,4.7c0,0.2,0,0.4,0,0.6C109.8,159.9,109.8,161.1,109.7,162.4
	L109.7,162.4z"/>
<path class="st9" d="M144.7,162.4c0-1.7-1.3-3-3-3s-3,1.3-3,3s1.3,3,3,3S144.7,164,144.7,162.4z M146.3,162.4c0,2.6-2.1,4.7-4.7,4.7
	s-4.7-2.1-4.7-4.7s2.1-4.7,4.7-4.7h0C144.2,157.7,146.3,159.8,146.3,162.4C146.3,162.3,146.3,162.4,146.3,162.4L146.3,162.4z
	 M147.6,157.5c0,0.6-0.5,1.1-1.1,1.1c-0.6,0-1.1-0.5-1.1-1.1c0-0.6,0.5-1.1,1.1-1.1l0,0C147.1,156.4,147.6,156.9,147.6,157.5
	C147.6,157.5,147.6,157.5,147.6,157.5L147.6,157.5z M141.6,154.9c-1.3,0-4.2-0.1-5.4,0.4c-0.8,0.3-1.4,0.9-1.7,1.7
	c-0.5,1.2-0.4,4-0.4,5.4s-0.1,4.2,0.4,5.4c0.3,0.8,0.9,1.4,1.7,1.7c1.2,0.5,4,0.4,5.4,0.4s4.2,0.1,5.4-0.4c0.8-0.3,1.4-0.9,1.7-1.7
	c0.5-1.2,0.4-4,0.4-5.4s0.1-4.2-0.4-5.4c-0.3-0.8-0.9-1.4-1.7-1.7C145.8,154.8,143,154.9,141.6,154.9L141.6,154.9z M150.7,162.4
	c0,1.3,0,2.5-0.1,3.8c0.2,2.8-1.9,5.1-4.7,5.3c-0.2,0-0.4,0-0.6,0c-1.3,0.1-2.5,0.1-3.8,0.1s-2.5,0-3.8-0.1
	c-2.8,0.2-5.1-1.9-5.3-4.7c0-0.2,0-0.4,0-0.6c-0.1-1.3-0.1-2.5-0.1-3.8s0-2.5,0.1-3.8c-0.2-2.8,1.9-5.1,4.7-5.3c0.2,0,0.4,0,0.6,0
	c1.3-0.1,2.5-0.1,3.8-0.1s2.5,0,3.8,0.1c2.8-0.2,5.1,1.9,5.3,4.7c0,0.2,0,0.4,0,0.6C150.8,159.9,150.8,161.1,150.7,162.4
	L150.7,162.4z"/>
<path class="st1" d="M100.5,189.2l17.5,10.1v20.2l-17.5,10.1L83,219.5v-20.2L100.5,189.2 M100.5,188L82,198.7V220l18.5,10.7L119,220
	v-21.3L100.5,188L100.5,188z"/>
<path class="st1" d="M141.5,188L123,198.7V220l18.5,10.7L160,220v-21.3L141.5,188z"/>
<rect x="172.8" y="11.5" class="st1" width="12.3" height="1"/>
<rect x="172.8" y="14.6" class="st1" width="12.3" height="1"/>
<rect x="172.8" y="17.8" class="st1" width="12.3" height="1"/>
<rect x="172.8" y="20.9" class="st1" width="7.8" height="1"/>
<rect x="295.9" y="41.4" class="st0" width="22.3" height="1.8"/>
<rect x="295.9" y="47.1" class="st0" width="22.3" height="1.8"/>
<rect x="295.9" y="52.8" class="st0" width="22.3" height="1.8"/>
<rect x="295.9" y="58.4" class="st0" width="14" height="1.8"/>
<path class="st1" d="M226,8.4v16.8l-14.5,8.4L197,25.1V8.4L211.5,0L226,8.4z"/>
<rect x="205.8" y="11.5" class="st9" width="12.3" height="1"/>
<rect x="205.8" y="14.6" class="st9" width="12.3" height="1"/>
<rect x="205.8" y="17.8" class="st9" width="12.3" height="1"/>
<rect x="205.8" y="20.9" class="st9" width="7.8" height="1"/>
<rect x="238.8" y="11.5" class="st9" width="12.3" height="1"/>
<rect x="238.8" y="14.6" class="st9" width="12.3" height="1"/>
<rect x="238.8" y="17.8" class="st9" width="12.3" height="1"/>
<rect x="238.8" y="20.9" class="st9" width="7.8" height="1"/>
<polygon class="st2" points="244.5,38 230,46.4 230,46.4 259,63.1 259,46.4 "/>
<path class="st1" d="M178.5,39.2L192,47v15.6l-13.5,7.8L165,62.5V46.9L178.5,39.2 M178.5,38L164,46.4v16.8l14.5,8.4l14.5-8.4V46.4
	L178.5,38L178.5,38L178.5,38z"/>
<path class="st9" d="M149.6,63.4c-0.6,0.3-1.3,0.4-1.9,0.5c0.7-0.4,1.2-1.1,1.5-1.8c-0.7,0.4-1.4,0.7-2.1,0.8
	c-1.3-1.3-3.4-1.4-4.7-0.1c-0.8,0.8-1.2,2-1,3.1c-2.7-0.1-5.2-1.4-6.9-3.5c-0.9,1.5-0.5,3.5,1,4.4c-0.5,0-1-0.1-1.5-0.4l0,0
	c0,1.6,1.1,2.9,2.7,3.3c-0.5,0.1-1,0.2-1.5,0.1c0.4,1.4,1.7,2.3,3.1,2.3c-1.2,0.9-2.6,1.4-4.1,1.4c-0.3,0-0.5,0-0.8,0
	c4.4,2.8,10.3,1.5,13.1-2.9c1-1.5,1.5-3.3,1.5-5.1c0-0.1,0-0.3,0-0.4C148.6,64.7,149.1,64.1,149.6,63.4z"/>
<path class="st1" d="M178.5,56.7c1.3,0,2.4-1.1,2.4-2.4c0,0,0,0,0,0v-4.7c0-1.3-1.1-2.4-2.4-2.4c-1.3,0-2.4,1.1-2.4,2.4v4.7
	C176.1,55.7,177.2,56.7,178.5,56.7C178.5,56.7,178.5,56.7,178.5,56.7z M177.6,49.5c-0.1-0.5,0.3-1,0.8-1s1,0.3,1,0.8
	c0,0.1,0,0.1,0,0.2v4.9c0,0.5-0.4,0.9-0.9,0.9c-0.5,0-0.9-0.4-0.9-0.9V49.5L177.6,49.5z M182.7,54.4c-0.1,2.3-2.1,4.1-4.4,4
	c-2.2-0.1-3.9-1.8-4-4H173c0.1,2.7,2.1,4.9,4.7,5.3v2.6h1.6v-2.6c2.6-0.4,4.6-2.6,4.7-5.3L182.7,54.4L182.7,54.4z"/>
<path class="st0" d="M307,160.5c2.5,0,4.5-2,4.5-4.5c0,0,0,0,0,0v-9.1c0.1-2.5-1.8-4.6-4.3-4.7c-2.5-0.1-4.6,1.8-4.7,4.3
	c0,0.1,0,0.3,0,0.4v9.1C302.5,158.5,304.5,160.5,307,160.5C307,160.5,307,160.5,307,160.5z M305.2,146.8c0-1,0.8-1.8,1.8-1.8
	c1,0,1.8,0.8,1.8,1.8c0,0,0,0,0,0v9.4c0,1-0.8,1.8-1.8,1.8s-1.8-0.8-1.8-1.8L305.2,146.8L305.2,146.8z M315,156c0,4.4-3.6,8-8,8
	s-8-3.6-8-8h-2.6c0.1,5.1,4,9.4,9,10.1v4.9h3v-4.9c5.1-0.7,8.9-5,9.1-10.1H315z"/>
<polygon class="st1" points="197.5,62.8 197.5,46.7 211.5,38.6 225.5,46.7 225.5,62.8 211.5,70.9 "/>
<path class="st1" d="M211.5,39.2L225,47v15.6l-13.5,7.8L198,62.5V46.9L211.5,39.2 M211.5,38L197,46.4v16.8l14.5,8.4l14.5-8.4V46.4
	L211.5,38L211.5,38L211.5,38z"/>
<path class="st9" d="M211.5,56.7c1.3,0,2.4-1.1,2.4-2.4c0,0,0,0,0,0v-4.7c0-1.3-1.1-2.4-2.4-2.4c-1.3,0-2.4,1.1-2.4,2.4v4.7
	C209.1,55.7,210.2,56.7,211.5,56.7C211.5,56.7,211.5,56.7,211.5,56.7z M210.6,49.5c-0.1-0.5,0.3-1,0.8-1s1,0.3,1,0.8
	c0,0.1,0,0.1,0,0.2v4.9c0,0.5-0.4,0.9-0.9,0.9c-0.5,0-0.9-0.4-0.9-0.9V49.5L210.6,49.5z M215.7,54.4c-0.1,2.3-2.1,4.1-4.4,4
	c-2.2-0.1-3.9-1.8-4-4H206c0.1,2.7,2.1,4.9,4.7,5.3v2.6h1.6v-2.6c2.6-0.4,4.6-2.6,4.7-5.3L215.7,54.4L215.7,54.4z"/>
<path class="st9" d="M244.5,56.7c1.3,0,2.4-1.1,2.4-2.4c0,0,0,0,0,0v-4.7c0-1.3-1.1-2.4-2.4-2.4c-1.3,0-2.4,1.1-2.4,2.4v4.7
	C242.1,55.7,243.2,56.7,244.5,56.7C244.5,56.7,244.5,56.7,244.5,56.7z M243.6,49.5c-0.1-0.5,0.3-1,0.8-1s1,0.3,1,0.8
	c0,0.1,0,0.1,0,0.2v4.9c0,0.5-0.4,0.9-0.9,0.9c-0.5,0-0.9-0.4-0.9-0.9V49.5L243.6,49.5z M248.7,54.4c-0.1,2.3-2.1,4.1-4.4,4
	c-2.2-0.1-3.9-1.8-4-4H239c0.1,2.7,2.1,4.9,4.7,5.3v2.6h1.6v-2.6c2.6-0.4,4.6-2.6,4.7-5.3L248.7,54.4L248.7,54.4z"/>
<polygon class="st2" points="244.5,76 230,84.4 230,84.4 259,101.1 259,84.4 "/>
<path class="st1" d="M178.5,77.2L192,85v15.6l-13.5,7.8l-13.5-7.8V85L178.5,77.2 M178.5,76L164,84.4v16.8l14.5,8.4l14.5-8.4V84.4
	L178.5,76L178.5,76L178.5,76z"/>
<polygon class="st1" points="197.5,100.8 197.5,84.7 211.5,76.6 225.5,84.7 225.5,100.8 211.5,108.9 "/>
<path class="st1" d="M211.5,77.2L225,85v15.6l-13.5,7.8l-13.5-7.8V85L211.5,77.2 M211.5,76L197,84.4v16.8l14.5,8.4l14.5-8.4V84.4
	L211.5,76L211.5,76L211.5,76z"/>
<polygon class="st2" points="244.5,113 230,121.4 230,121.4 259,138.1 259,121.4 "/>
<path class="st1" d="M178.5,115.2L192,123v15.6l-13.5,7.8l-13.5-7.8V123L178.5,115.2 M178.5,114l-14.5,8.4v16.7l14.5,8.4l14.5-8.4
	v-16.7L178.5,114L178.5,114z"/>
<polygon class="st1" points="197.5,138.8 197.5,122.7 211.5,114.6 225.5,122.7 225.5,138.8 211.5,146.9 "/>
<path class="st1" d="M211.5,115.2L225,123v15.6l-13.5,7.8l-13.5-7.8V123L211.5,115.2 M211.5,114l-14.5,8.4v16.7l14.5,8.4l14.5-8.4
	v-16.7L211.5,114L211.5,114z"/>
<polygon class="st2" points="244.5,152 230,160.4 230,160.4 259,177.1 259,160.4 "/>
<path class="st1" d="M178.5,153.2L192,161v15.6l-13.5,7.8l-13.5-7.8V161L178.5,153.2 M178.5,152l-14.5,8.4v16.8l14.5,8.4l14.5-8.4
	v-16.8L178.5,152L178.5,152z"/>
<path class="st1" d="M226,160.4v16.8l-14.5,8.4l-14.5-8.4v-16.8l14.5-8.4L226,160.4z"/>
<path class="st10" d="M307,1.2L350,26v49.6l-43,24.8l-43-24.8V26L307,1.2 M307,0l-44,25.4v50.8l44,25.4l44-25.4V25.4L307,0L307,0z"
	/>
<rect x="387.9" y="41.4" class="st9" width="22.3" height="1.8"/>
<rect x="387.9" y="47.1" class="st9" width="22.3" height="1.8"/>
<rect x="387.9" y="52.8" class="st9" width="22.3" height="1.8"/>
<rect x="387.9" y="58.4" class="st9" width="14" height="1.8"/>
<path class="st10" d="M307,107.2l43,24.8v49.6l-43,24.8l-43-24.8V132L307,107.2 M307,106l-44,25.4v50.8l44,25.4l44-25.4v-50.8
	L307,106L307,106L307,106z"/>
<polygon class="st0" points="399,106 443,131.4 443,182.2 399,207.6 355,182.2 355,131.4 "/>
<path class="st10" d="M307,213.2l43,24.9v49.7l-43,24.8l-43-24.8V238L307,213.2 M307,212l-44,25.4v50.8l44,25.4l44-25.4v-50.8
	L307,212L307,212L307,212z"/>
<polygon class="st0" points="399,212 443,237.4 443,288.2 399,313.6 355,288.2 355,237.4 "/>
<path class="st10" d="M307,319.2l43,24.9v49.6l-43,24.8l-43-24.8V344L307,319.2 M307,318l-44,25.4v50.8l44,25.4l44-25.4v-50.8
	L307,318L307,318L307,318z"/>
<polygon class="st0" points="399,318 443,343.4 443,394.2 399,419.6 355,394.2 355,343.4 "/>
<path class="st10" d="M307,425.2l43,24.9v49.6l-43,24.8l-43-24.8V450L307,425.2 M307,424l-44,25.4v50.8l44,25.4l44-25.4v-50.8
	L307,424L307,424L307,424z"/>
<polygon class="st0" points="399,424 443,449.4 443,500.2 399,525.6 355,500.2 355,449.4 "/>
<path class="st9" d="M399,160.5c2.5,0,4.5-2,4.5-4.5c0,0,0,0,0,0v-9.1c-0.1-2.5-2.2-4.4-4.7-4.3c-2.3,0.1-4.2,2-4.3,4.3v9.1
	C394.5,158.5,396.5,160.5,399,160.5C399,160.5,399,160.5,399,160.5z M397.2,146.8c0-1,0.8-1.8,1.8-1.8c1,0,1.8,0.8,1.8,1.8
	c0,0,0,0,0,0v9.4c0,1-0.8,1.8-1.8,1.8s-1.8-0.8-1.8-1.8L397.2,146.8L397.2,146.8z M407,156c0,4.4-3.6,8-8,8s-8-3.6-8-8h-2.6
	c0.1,5.1,4,9.4,9,10.1v4.9h3v-4.9c5.1-0.7,8.9-5,9.1-10.1H407z"/>
<path class="st1" d="M178.5,86.9c3.2,0,5.9,2.6,5.9,5.9s-2.6,5.9-5.9,5.9s-5.9-2.6-5.9-5.9C172.6,89.5,175.3,86.9,178.5,86.9
	 M178.5,85.6c-3.9,0-7.1,3.2-7.1,7.1s3.2,7.1,7.1,7.1s7.1-3.2,7.1-7.1S182.4,85.6,178.5,85.6L178.5,85.6L178.5,85.6z"/>
<polygon class="st1" points="181.6,92.8 176.9,95.4 176.9,90.1 "/>
<path class="st0" d="M307,252.2c6.3,0,11.3,5.1,11.3,11.3c0,6.3-5.1,11.3-11.3,11.3c-6.3,0-11.3-5.1-11.3-11.3
	C295.7,257.2,300.8,252.2,307,252.2 M307,249.7c-7.6,0-13.7,6.1-13.7,13.7c0,7.6,6.1,13.7,13.7,13.7c7.6,0,13.7-6.1,13.7-13.7
	C320.7,255.9,314.6,249.8,307,249.7L307,249.7L307,249.7L307,249.7z"/>
<polygon class="st0" points="313,263.5 304,268.7 304,258.3 "/>
<path class="st9" d="M211.5,86.9c3.2,0,5.9,2.6,5.9,5.9s-2.6,5.9-5.9,5.9s-5.9-2.6-5.9-5.9C205.6,89.5,208.3,86.9,211.5,86.9
	 M211.5,85.6c-3.9,0-7.1,3.2-7.1,7.1s3.2,7.1,7.1,7.1s7.1-3.2,7.1-7.1S215.4,85.6,211.5,85.6L211.5,85.6L211.5,85.6z"/>
<polygon class="st9" points="214.6,92.8 209.9,95.4 209.9,90.1 "/>
<path class="st9" d="M244.5,86.9c3.2,0,5.9,2.6,5.9,5.9s-2.6,5.9-5.9,5.9s-5.9-2.6-5.9-5.9C238.6,89.5,241.3,86.9,244.5,86.9
	 M244.5,85.6c-3.9,0-7.1,3.2-7.1,7.1s3.2,7.1,7.1,7.1s7.1-3.2,7.1-7.1S248.4,85.6,244.5,85.6L244.5,85.6L244.5,85.6z"/>
<polygon class="st9" points="247.6,92.8 242.9,95.4 242.9,90.1 "/>
<path class="st1" d="M184.9,124h-0.1c-0.9,0-1.7,0.8-1.7,1.7c0,0.4,0.2,0.9,0.5,1.2l-2.2,3.7h-0.3H181c-0.4,0-0.8,0.2-1.2,0.5
	l-2.3-1.3c0.2-0.9-0.4-1.8-1.4-2c-0.1,0-0.1,0-0.2,0h0c-0.9,0-1.7,0.8-1.7,1.7c0,0.4,0.2,0.9,0.5,1.2l-2.2,3.7h-0.3h-0.1
	c-0.9,0-1.7,0.7-1.8,1.6s0.7,1.7,1.6,1.8h0.1c0.9,0,1.7-0.8,1.7-1.7c0-0.4-0.2-0.9-0.5-1.2l2.2-3.7h0.3h0.1c0.5,0,0.9-0.2,1.2-0.5
	l2.2,1.3c-0.2,0.9,0.4,1.8,1.3,2c0.1,0,0.2,0,0.3,0h0c0.9,0,1.7-0.8,1.7-1.7c0-0.4-0.2-0.9-0.5-1.2l2.2-3.7h0.3h0.1
	c0.9,0,1.7-0.7,1.8-1.6C186.6,124.8,185.9,124.1,184.9,124z M172.2,136.5L172.2,136.5c-0.4,0-0.7-0.3-0.7-0.7c0-0.4,0.3-0.7,0.7-0.7
	h0.1c0.4,0,0.7,0.3,0.7,0.7C172.9,136.2,172.6,136.5,172.2,136.5z M176,130L176,130c-0.4,0-0.7-0.3-0.7-0.7c0-0.4,0.3-0.7,0.7-0.7
	h0.1c0.4,0,0.7,0.3,0.7,0.7C176.7,129.7,176.4,130,176,130z M181.8,132.2c0,0.4-0.3,0.7-0.7,0.6H181c-0.4,0-0.7-0.3-0.7-0.7
	c0-0.4,0.3-0.7,0.7-0.7h0.1C181.4,131.5,181.7,131.8,181.8,132.2C181.7,132.2,181.7,132.2,181.8,132.2L181.8,132.2z M185.5,125.7
	c0,0.4-0.3,0.7-0.7,0.7h-0.1c-0.4,0-0.7-0.3-0.7-0.7c0-0.4,0.3-0.7,0.7-0.7l0,0h0.1C185.2,125,185.5,125.3,185.5,125.7
	C185.5,125.7,185.5,125.7,185.5,125.7L185.5,125.7z"/>
<path class="st0" d="M319.3,355.8h-0.2c-1.8,0-3.3,1.5-3.2,3.3c0,0.8,0.3,1.6,0.9,2.2l-4.1,7c-0.2,0-0.3-0.1-0.5-0.1h-0.2
	c-0.8,0-1.6,0.3-2.2,0.9l-4.3-2.5c0.3-1.8-0.8-3.5-2.6-3.8c-0.1,0-0.3,0-0.4,0h-0.2c-1.8,0-3.3,1.5-3.3,3.3c0,0.8,0.3,1.6,0.9,2.2
	l-4.1,7c-0.2,0-0.3-0.1-0.5-0.1h-0.2c-1.8,0-3.2,1.5-3.2,3.3c0,1.7,1.3,3.1,3,3.2h0.2c1.8,0,3.3-1.5,3.2-3.3c0-0.8-0.3-1.6-0.9-2.2
	l4.1-7c0.2,0,0.3,0.1,0.5,0.1h0.2c0.9,0,1.7-0.4,2.3-1l4.2,2.5c-0.4,1.7,0.6,3.5,2.4,3.9c0.2,0,0.4,0.1,0.6,0.1h0.2
	c1.8,0,3.3-1.5,3.3-3.3c0-0.8-0.3-1.6-0.9-2.2l4.1-7c0.2,0,0.3,0.1,0.5,0.1h0.2c1.8,0.1,3.3-1.4,3.4-3.2S321.1,355.9,319.3,355.8
	L319.3,355.8z M294.9,379.8h-0.1c-0.7,0-1.3-0.6-1.3-1.4c0-0.7,0.6-1.3,1.4-1.3h0.1c0.7,0,1.3,0.6,1.3,1.4
	C296.3,379.3,295.7,379.9,294.9,379.8L294.9,379.8L294.9,379.8z M302.1,367.4H302c-0.7,0-1.3-0.6-1.3-1.4c0-0.7,0.6-1.3,1.4-1.3l0,0
	h0.1c0.7,0,1.3,0.6,1.3,1.4S302.9,367.4,302.1,367.4L302.1,367.4z M313.2,371.6c-0.1,0.7-0.6,1.2-1.3,1.3h-0.1
	c-0.7,0-1.3-0.6-1.3-1.4c0-0.7,0.6-1.3,1.4-1.3l0,0h0.1C312.7,370.3,313.3,370.9,313.2,371.6L313.2,371.6z M320.4,359.2
	c-0.1,0.7-0.6,1.2-1.3,1.3H319c-0.7,0-1.3-0.6-1.3-1.4c0-0.7,0.6-1.3,1.4-1.3h0.1C319.9,357.8,320.5,358.5,320.4,359.2L320.4,359.2z
	"/>
<path class="st9" d="M217.9,124h-0.1c-0.9,0-1.7,0.8-1.7,1.7c0,0.4,0.2,0.9,0.5,1.2l-2.2,3.7h-0.3H214c-0.4,0-0.8,0.2-1.2,0.5
	l-2.3-1.3c0.2-0.9-0.4-1.8-1.4-2c-0.1,0-0.1,0-0.2,0h0c-0.9,0-1.7,0.8-1.7,1.7c0,0.4,0.2,0.9,0.5,1.2l-2.2,3.7h-0.3h-0.1
	c-0.9,0-1.7,0.7-1.8,1.6s0.7,1.7,1.6,1.8h0.1c0.9,0,1.7-0.8,1.7-1.7c0-0.4-0.2-0.9-0.5-1.2l2.2-3.7h0.3h0.1c0.5,0,0.9-0.2,1.2-0.5
	l2.2,1.3c-0.2,0.9,0.4,1.8,1.3,2c0.1,0,0.2,0,0.3,0h0c0.9,0,1.7-0.8,1.7-1.7c0-0.4-0.2-0.9-0.5-1.2l2.2-3.7h0.3h0.1
	c0.9,0,1.7-0.7,1.8-1.6C219.6,124.8,218.9,124.1,217.9,124z M205.2,136.5L205.2,136.5c-0.4,0-0.7-0.3-0.7-0.7c0-0.4,0.3-0.7,0.7-0.7
	h0.1c0.4,0,0.7,0.3,0.7,0.7C205.9,136.2,205.6,136.5,205.2,136.5z M209,130L209,130c-0.4,0-0.7-0.3-0.7-0.7c0-0.4,0.3-0.7,0.7-0.7
	h0.1c0.4,0,0.7,0.3,0.7,0.7C209.7,129.7,209.4,130,209,130z M214.8,132.2c0,0.4-0.3,0.7-0.7,0.6H214c-0.4,0-0.7-0.3-0.7-0.7
	c0-0.4,0.3-0.7,0.7-0.7h0.1C214.4,131.5,214.7,131.8,214.8,132.2C214.7,132.2,214.7,132.2,214.8,132.2L214.8,132.2z M218.5,125.7
	c0,0.4-0.3,0.7-0.7,0.7h-0.1c-0.4,0-0.7-0.3-0.7-0.7c0-0.4,0.3-0.7,0.7-0.7h0.1C218.2,125,218.5,125.3,218.5,125.7
	C218.5,125.7,218.5,125.7,218.5,125.7L218.5,125.7z"/>
<path class="st9" d="M250.9,124h-0.1c-0.9,0-1.7,0.8-1.7,1.7c0,0.4,0.2,0.9,0.5,1.2l-2.2,3.7h-0.3H247c-0.4,0-0.8,0.2-1.2,0.5
	l-2.3-1.3c0.2-0.9-0.4-1.8-1.4-2c-0.1,0-0.1,0-0.2,0h0c-0.9,0-1.7,0.8-1.7,1.7c0,0.4,0.2,0.9,0.5,1.2l-2.2,3.7h-0.3h-0.1
	c-0.9,0-1.7,0.7-1.8,1.6s0.7,1.7,1.6,1.8h0.1c0.9,0,1.7-0.8,1.7-1.7c0-0.4-0.2-0.9-0.5-1.2l2.2-3.7h0.3h0.1c0.5,0,0.9-0.2,1.2-0.5
	l2.2,1.3c-0.2,0.9,0.4,1.8,1.3,2c0.1,0,0.2,0,0.3,0h0c0.9,0,1.7-0.8,1.7-1.7c0-0.4-0.2-0.9-0.5-1.2l2.2-3.7h0.3h0.1
	c0.9,0,1.7-0.7,1.8-1.6C252.6,124.8,251.9,124.1,250.9,124z M238.2,136.5L238.2,136.5c-0.4,0-0.7-0.3-0.7-0.7c0-0.4,0.3-0.7,0.7-0.7
	h0.1c0.4,0,0.7,0.3,0.7,0.7C238.9,136.2,238.6,136.5,238.2,136.5z M242,130L242,130c-0.4,0-0.7-0.3-0.7-0.7c0-0.4,0.3-0.7,0.7-0.7
	h0.1c0.4,0,0.7,0.3,0.7,0.7C242.7,129.7,242.4,130,242,130z M247.8,132.2c0,0.4-0.3,0.7-0.7,0.6H247c-0.4,0-0.7-0.3-0.7-0.7
	c0-0.4,0.3-0.7,0.7-0.7h0.1C247.4,131.5,247.7,131.8,247.8,132.2C247.7,132.2,247.7,132.2,247.8,132.2L247.8,132.2z M251.5,125.7
	c0,0.4-0.3,0.7-0.7,0.7h-0.1c-0.4,0-0.7-0.3-0.7-0.7c0-0.4,0.3-0.7,0.7-0.7h0.1C251.2,125,251.5,125.3,251.5,125.7
	C251.5,125.7,251.5,125.7,251.5,125.7L251.5,125.7z"/>
<path class="st1" d="M185.3,166.5c-0.1-0.1-0.2-0.1-0.3-0.1h-7.4l-4-4c-0.2-0.2-0.6-0.2-0.8,0s-0.2,0.6,0,0.8l3.2,3.2h-4
	c-0.3,0-0.5,0.2-0.6,0.6v1.9c0,3.9,3.1,7,7,7s7-3.1,7-7V167C185.5,166.8,185.4,166.7,185.3,166.5z M178.5,174.3
	c-2.6,0-4.9-1.7-5.7-4.3h11.4C183.4,172.5,181.1,174.3,178.5,174.3L178.5,174.3z M184.4,168.8v0.1h-11.8v-0.1c0-0.2,0-0.3,0-0.5
	s0-0.3,0-0.5v-0.3h11.8v0.3c0,0.2,0,0.3,0,0.5S184.4,168.6,184.4,168.8L184.4,168.8z"/>
<path class="st0" d="M320.9,470.3c-0.2-0.2-0.4-0.2-0.7-0.2h-14.8l-8.1-8.1c-0.4-0.4-1.1-0.4-1.6,0s-0.4,1.1,0,1.6l6.5,6.5h-7.9
	c-0.6,0-1.1,0.5-1.1,1.1v3.8c0.5,7.8,7.2,13.6,15,13.1c7.1-0.5,12.7-6.1,13.1-13.1v-3.8C321.3,470.8,321.1,470.5,320.9,470.3z
	 M307.2,485.7c-5.3,0-9.9-3.5-11.4-8.5h22.8C317.2,482.3,312.5,485.7,307.2,485.7L307.2,485.7z M319.1,474.8v0.2h-23.7v-0.2
	c0-0.3,0-0.6,0-0.9s0-0.6,0-0.9v-0.7h23.7v0.7c0,0.3,0,0.6,0,0.9S319.1,474.5,319.1,474.8L319.1,474.8z"/>
<path class="st9" d="M218.3,166.5c-0.1-0.1-0.2-0.1-0.3-0.1h-7.4l-4-4c-0.2-0.2-0.6-0.2-0.8,0s-0.2,0.6,0,0.8l3.2,3.2h-4
	c-0.3,0-0.5,0.2-0.6,0.6v1.9c0,3.9,3.1,7,7,7s7-3.1,7-7V167C218.5,166.8,218.4,166.7,218.3,166.5z M211.5,174.3
	c-2.6,0-4.9-1.7-5.7-4.3h11.4C216.4,172.5,214.1,174.3,211.5,174.3L211.5,174.3z M217.4,168.8v0.1h-11.8v-0.1c0-0.2,0-0.3,0-0.5
	s0-0.3,0-0.5v-0.3h11.8v0.3c0,0.2,0,0.3,0,0.5S217.4,168.6,217.4,168.8L217.4,168.8z"/>
<path class="st9" d="M251.3,166.5c-0.1-0.1-0.2-0.1-0.3-0.1h-7.4l-4-4c-0.2-0.2-0.6-0.2-0.8,0s-0.2,0.6,0,0.8l3.2,3.2h-4
	c-0.3,0-0.5,0.2-0.6,0.6v1.9c0,3.9,3.1,7,7,7s7-3.1,7-7V167C251.5,166.8,251.4,166.7,251.3,166.5z M244.5,174.3
	c-2.6,0-4.9-1.7-5.7-4.3h11.4C249.4,172.5,247.1,174.3,244.5,174.3L244.5,174.3z M250.4,168.8v0.1h-11.8v-0.1c0-0.2,0-0.3,0-0.5
	s0-0.3,0-0.5v-0.3h11.8v0.3c0,0.2,0,0.3,0,0.5S250.4,168.6,250.4,168.8L250.4,168.8z"/>
<path class="st9" d="M399,252.2c6.3,0,11.3,5.1,11.3,11.3c0,6.3-5.1,11.3-11.3,11.3c-6.3,0-11.3-5.1-11.3-11.3
	C387.7,257.2,392.8,252.2,399,252.2 M399,249.7c-7.6,0-13.7,6.1-13.7,13.7c0,7.6,6.1,13.7,13.7,13.7c7.6,0,13.7-6.1,13.7-13.7
	C412.7,255.9,406.6,249.8,399,249.7L399,249.7L399,249.7L399,249.7z"/>
<polygon class="st9" points="405,263.5 396,268.7 396,258.3 "/>
<path class="st9" d="M411.3,355.8h-0.2c-1.8,0-3.3,1.5-3.2,3.3c0,0.8,0.3,1.6,0.9,2.2l-4.1,7c-0.2,0-0.3-0.1-0.5-0.1h-0.2
	c-0.8,0-1.6,0.3-2.2,0.9l-4.3-2.5c0.3-1.8-0.8-3.5-2.6-3.8c-0.1,0-0.3,0-0.4,0h-0.2c-1.8,0-3.3,1.5-3.3,3.3c0,0.8,0.3,1.6,0.9,2.2
	l-4.1,7c-0.2,0-0.3-0.1-0.5-0.1h-0.2c-1.8,0-3.2,1.5-3.2,3.3c0,1.7,1.3,3.1,3,3.2h0.2c1.8,0,3.3-1.5,3.2-3.3c0-0.8-0.3-1.6-0.9-2.2
	l4.1-7c0.2,0,0.3,0.1,0.5,0.1h0.2c0.9,0,1.7-0.4,2.3-1l4.2,2.5c-0.4,1.7,0.6,3.5,2.4,3.9c0.2,0,0.4,0.1,0.6,0.1h0.2
	c1.8,0,3.3-1.5,3.3-3.3c0-0.8-0.3-1.6-0.9-2.2l4.1-7c0.2,0,0.3,0.1,0.5,0.1h0.2c1.8,0.1,3.3-1.4,3.4-3.2S413.1,355.9,411.3,355.8
	L411.3,355.8z M386.9,379.8h-0.1c-0.7,0-1.3-0.6-1.3-1.4c0-0.7,0.6-1.3,1.4-1.3h0.1c0.7,0,1.3,0.6,1.3,1.4
	C388.3,379.3,387.7,379.9,386.9,379.8L386.9,379.8L386.9,379.8z M394.1,367.4H394c-0.7,0-1.3-0.6-1.3-1.4c0-0.7,0.6-1.3,1.4-1.3l0,0
	h0.1c0.7,0,1.3,0.6,1.3,1.4S394.9,367.4,394.1,367.4L394.1,367.4z M405.2,371.6c-0.1,0.7-0.6,1.2-1.3,1.3h-0.1
	c-0.7,0-1.3-0.6-1.3-1.4c0-0.7,0.6-1.3,1.4-1.3l0,0h0.1C404.7,370.3,405.3,370.9,405.2,371.6L405.2,371.6z M412.4,359.2
	c-0.1,0.7-0.6,1.2-1.3,1.3H411c-0.7,0-1.3-0.6-1.3-1.4c0-0.7,0.6-1.3,1.4-1.3h0.1C411.9,357.8,412.5,358.5,412.4,359.2L412.4,359.2z
	"/>
<path class="st9" d="M412.9,470.3c-0.2-0.2-0.4-0.2-0.7-0.2h-14.8l-8.1-8.1c-0.4-0.4-1.1-0.4-1.6,0s-0.4,1.1,0,1.6l6.5,6.5h-7.9
	c-0.6,0-1.1,0.5-1.1,1.1v3.8c0.5,7.8,7.2,13.6,15,13.1c7.1-0.5,12.7-6.1,13.1-13.1v-3.8C413.3,470.8,413.1,470.5,412.9,470.3z
	 M399.2,485.7c-5.3,0-9.9-3.5-11.4-8.5h22.8C409.2,482.3,404.5,485.7,399.2,485.7L399.2,485.7z M411.1,474.8v0.2h-23.7v-0.2
	c0-0.3,0-0.6,0-0.9s0-0.6,0-0.9v-0.7h23.7v0.7c0,0.3,0,0.6,0,0.9S411.1,474.5,411.1,474.8L411.1,474.8z"/>
<path class="st11" d="M10,503.8H9.4l-0.2-0.2c1.9-2.2,1.6-5.5-0.6-7.3s-5.5-1.6-7.3,0.6s-1.6,5.5,0.6,7.3c2,1.7,4.8,1.7,6.8,0
	l0.2,0.2v0.6l4,4l1.2-1.2L10,503.8z M5.2,503.8c-2,0-3.6-1.6-3.6-3.6s1.6-3.6,3.6-3.6s3.6,1.6,3.6,3.6S7.2,503.8,5.2,503.8
	C5.2,503.8,5.2,503.8,5.2,503.8z"/>
<path class="st11" d="M46.4,500.5h-1l-0.4-0.4c3.1-3.6,2.7-9-0.9-12.1s-9-2.7-12.1,0.9s-2.7,9,0.9,12.1c3.2,2.8,7.9,2.8,11.2,0
	l0.4,0.4v1L51,509l2-2L46.4,500.5z M38.5,500.5c-3.3,0-5.9-2.7-5.9-5.9c0-3.3,2.7-5.9,5.9-5.9c3.3,0,5.9,2.7,5.9,5.9
	C44.5,497.8,41.8,500.5,38.5,500.5C38.6,500.5,38.6,500.5,38.5,500.5z"/>
<polygon class="st0" points="551.5,0 585,19.3 585,58 551.5,77.4 518,58 518,19.3 "/>
<rect x="472" y="31.5" class="st0" width="17" height="1.4"/>
<rect x="472" y="35.8" class="st0" width="17" height="1.4"/>
<rect x="472" y="40.2" class="st0" width="17" height="1.4"/>
<rect x="472" y="44.5" class="st0" width="10.7" height="1.4"/>
<path class="st0" d="M480.5,122.5c1.9,0,3.4-1.5,3.4-3.4c0,0,0,0,0,0v-6.9c0.1-1.9-1.4-3.5-3.3-3.6s-3.5,1.4-3.6,3.3
	c0,0.1,0,0.2,0,0.4v6.9C477,121,478.6,122.5,480.5,122.5C480.5,122.5,480.5,122.5,480.5,122.5z M479.1,112c0-0.8,0.6-1.4,1.4-1.4
	s1.4,0.6,1.4,1.4v7.1c0,0.8-0.6,1.4-1.4,1.4s-1.4-0.6-1.4-1.4l0,0L479.1,112L479.1,112z M486.6,119c0,3.4-2.7,6.1-6.1,6.1
	c-3.4,0-6.1-2.7-6.1-6.1h-2c0.1,3.9,3,7.2,6.9,7.7v3.8h2.3v-3.8c3.9-0.5,6.8-3.8,6.9-7.7L486.6,119L486.6,119z"/>
<path class="st10" d="M480.5,1.2L513,19.9v37.5l-32.5,18.8L448,57.4V19.9L480.5,1.2 M480.5,0L447,19.3V58l33.5,19.3L514,58V19.3
	L480.5,0L480.5,0z"/>
<rect x="543" y="31.5" class="st9" width="17" height="1.4"/>
<rect x="543" y="35.8" class="st9" width="17" height="1.4"/>
<rect x="543" y="40.2" class="st9" width="17" height="1.4"/>
<rect x="543" y="44.5" class="st9" width="10.7" height="1.4"/>
<path class="st10" d="M480.5,82.2l32.5,18.8v37.5l-32.5,18.8L448,138.4v-37.5L480.5,82.2 M480.5,81L447,100.3V139l33.5,19.3L514,139
	v-38.7L480.5,81L480.5,81z"/>
<polygon class="st0" points="551.5,81 585,100.3 585,139 551.5,158.4 518,139 518,100.3 "/>
<path class="st10" d="M480.5,163.2l32.5,18.8v37.5l-32.5,18.8L448,219.4v-37.5L480.5,163.2 M480.5,162L447,181.3V220l33.5,19.3
	L514,220v-38.7L480.5,162L480.5,162L480.5,162z"/>
<polygon class="st0" points="551.5,162 585,181.3 585,220 551.5,239.4 518,220 518,181.3 "/>
<path class="st10" d="M480.5,244.2l32.5,18.8v37.5l-32.5,18.8L448,300.5v-37.5L480.5,244.2 M480.5,243L447,262.3V301l33.5,19.3
	L514,301v-38.7L480.5,243L480.5,243L480.5,243z"/>
<polygon class="st0" points="551.5,243 585,262.3 585,301 551.5,320.4 518,301 518,262.3 "/>
<path class="st10" d="M480.5,325.2l32.5,18.8v37.5l-32.5,18.8L448,381.5v-37.5L480.5,325.2 M480.5,324L447,343.3V382l33.5,19.3
	L514,382v-38.7L480.5,324L480.5,324z"/>
<polygon class="st0" points="551.5,324 585,343.3 585,382 551.5,401.4 518,382 518,343.3 "/>
<path class="st9" d="M551.5,122.5c1.9,0,3.4-1.5,3.4-3.4c0,0,0,0,0,0v-6.9c-0.1-1.9-1.7-3.4-3.6-3.3c-1.8,0.1-3.2,1.5-3.3,3.3v6.9
	C548,121,549.6,122.5,551.5,122.5C551.5,122.5,551.5,122.5,551.5,122.5z M550.1,112c0-0.8,0.6-1.4,1.4-1.4s1.4,0.6,1.4,1.4v7.1
	c0,0.8-0.6,1.4-1.4,1.4s-1.4-0.6-1.4-1.4l0,0L550.1,112L550.1,112z M557.6,119c0,3.4-2.7,6.1-6.1,6.1c-3.4,0-6.1-2.7-6.1-6.1h-2
	c0.1,3.9,3,7.2,6.9,7.7v3.8h2.3v-3.8c3.9-0.5,6.8-3.8,6.9-7.7L557.6,119L557.6,119z"/>
<path class="st0" d="M480.5,192.6c4.8,0,8.6,3.9,8.6,8.6s-3.9,8.6-8.6,8.6c-4.8,0-8.6-3.9-8.6-8.6c0,0,0,0,0,0
	C471.9,196.4,475.7,192.6,480.5,192.6 M480.5,190.8c-5.8,0-10.4,4.7-10.4,10.5c0,5.8,4.7,10.4,10.5,10.4c5.8,0,10.4-4.7,10.4-10.5
	C491,195.4,486.3,190.7,480.5,190.8L480.5,190.8L480.5,190.8L480.5,190.8z"/>
<polygon class="st0" points="485.1,201.2 478.2,205.1 478.2,197.2 "/>
<path class="st0" d="M489.9,271.8h-0.2c-1.4,0-2.5,1.1-2.5,2.5c0,0.6,0.2,1.2,0.7,1.7l-3.1,5.4c-0.1,0-0.2,0-0.4-0.1h-0.2
	c-0.6,0-1.2,0.2-1.7,0.7l-3.3-2c0.3-1.3-0.6-2.6-2-2.9c-0.1,0-0.2,0-0.3,0h-0.2c-1.4,0-2.5,1.1-2.5,2.5c0,0.6,0.2,1.2,0.7,1.7
	l-3.1,5.4c-0.1,0-0.2,0-0.4,0h-0.2c-1.4,0-2.5,1-2.6,2.4c0,1.4,1,2.5,2.4,2.6h0.2c1.4,0,2.5-1.1,2.5-2.5c0-0.6-0.2-1.2-0.7-1.7
	l3.1-5.4c0.1,0,0.2,0,0.4,0.1h0.2c0.7,0,1.3-0.3,1.8-0.7l3.2,1.9c-0.3,1.3,0.5,2.7,1.9,2.9c0.1,0,0.2,0,0.4,0.1h0.2
	c1.4,0,2.5-1.1,2.5-2.5c0-0.6-0.2-1.2-0.7-1.7l3.1-5.4c0.1,0,0.2,0,0.4,0h0.2c1.4,0,2.5-1.1,2.4-2.5
	C492.1,273,491.1,271.9,489.9,271.8z M471.3,290.1L471.3,290.1c-0.6,0-1.1-0.5-1-1s0.5-1,1-1l0,0h0.1c0.6,0,1,0.5,1,1
	S471.9,290.1,471.3,290.1z M476.8,280.6L476.8,280.6c-0.6,0-1.1-0.5-1-1s0.5-1,1-1h0.1c0.6,0,1,0.5,1,1S477.3,280.6,476.8,280.6z
	 M485.2,283.8c0,0.6-0.4,1-1,1h-0.1c-0.6,0-1-0.5-1-1s0.5-1,1-1h0.1C484.8,282.9,485.2,283.3,485.2,283.8L485.2,283.8z M490.7,274.4
	c0,0.6-0.4,1-1,1h-0.1c-0.6,0-1-0.5-1-1s0.5-1,1-1h0.1C490.3,273.4,490.7,273.8,490.7,274.4L490.7,274.4z"/>
<path class="st0" d="M491,359.2c-0.1-0.1-0.3-0.2-0.5-0.2h-11.3l-6.2-6.2c-0.4-0.3-0.9-0.1-1.2,0.3c-0.2,0.3-0.2,0.6,0,0.9l5,5h-6
	c-0.5,0-0.8,0.4-0.8,0.8v2.9c0.4,5.9,5.5,10.4,11.4,10c5.3-0.4,9.6-4.6,10-10v-2.9C491.4,359.6,491.3,359.4,491,359.2z M480.7,371
	c-4,0-7.5-2.6-8.7-6.5h17.4C488.2,368.4,484.7,371,480.7,371z M489.7,362.7v0.1h-18v-0.1c0-0.2,0-0.5,0-0.7s0-0.5,0-0.7v-0.5h18v0.5
	c0,0.2,0,0.5,0,0.7S489.7,362.4,489.7,362.7L489.7,362.7z"/>
<path class="st9" d="M551.5,192.6c4.8,0,8.6,3.9,8.6,8.6s-3.9,8.6-8.6,8.6c-4.8,0-8.6-3.9-8.6-8.6c0,0,0,0,0,0
	C542.9,196.4,546.7,192.6,551.5,192.6 M551.5,190.8c-5.8,0-10.4,4.7-10.4,10.5c0,5.8,4.7,10.4,10.5,10.4c5.8,0,10.4-4.7,10.4-10.5
	C562,195.4,557.3,190.7,551.5,190.8L551.5,190.8L551.5,190.8L551.5,190.8z"/>
<polygon class="st9" points="556.1,201.2 549.2,205.1 549.2,197.2 "/>
<path class="st9" d="M560.9,271.8h-0.2c-1.4,0-2.5,1.1-2.5,2.5c0,0.6,0.2,1.2,0.7,1.7l-3.2,5.4c-0.1,0-0.2,0-0.4-0.1h-0.2
	c-0.6,0-1.2,0.2-1.7,0.7l-3.3-2c0.3-1.3-0.6-2.6-2-2.9c-0.1,0-0.2,0-0.3,0h-0.2c-1.4,0-2.5,1.1-2.5,2.5c0,0.6,0.2,1.2,0.7,1.7
	l-3.2,5.4c-0.1,0-0.2,0-0.4,0h-0.2c-1.4,0-2.5,1-2.6,2.4c0,1.4,1,2.5,2.4,2.6h0.2c1.4,0,2.5-1.1,2.5-2.5c0-0.6-0.2-1.2-0.7-1.7
	l3.2-5.4c0.1,0,0.2,0,0.4,0.1h0.2c0.7,0,1.3-0.3,1.8-0.7l3.2,1.9c-0.3,1.3,0.5,2.7,1.9,2.9c0.1,0,0.2,0,0.4,0.1h0.2
	c1.4,0,2.5-1.1,2.5-2.5c0-0.6-0.2-1.2-0.7-1.7l3.2-5.4c0.1,0,0.2,0,0.4,0h0.2c1.4,0,2.5-1.1,2.4-2.5
	C563.1,273,562.1,271.9,560.9,271.8z M542.3,290.1L542.3,290.1c-0.6,0-1.1-0.5-1-1c0-0.6,0.5-1,1-1l0,0h0.1c0.6,0,1,0.5,1,1
	C543.3,289.7,542.9,290.1,542.3,290.1z M547.8,280.6L547.8,280.6c-0.6,0-1.1-0.5-1-1c0-0.6,0.5-1,1-1h0.1c0.6,0,1,0.5,1,1
	C548.8,280.2,548.3,280.6,547.8,280.6z M556.2,283.8c0,0.6-0.4,1-1,1h-0.1c-0.6,0-1-0.5-1-1c0-0.6,0.5-1,1-1h0.1
	C555.8,282.9,556.2,283.3,556.2,283.8L556.2,283.8z M561.7,274.4c0,0.6-0.4,1-1,1h-0.1c-0.6,0-1-0.5-1-1c0-0.6,0.5-1,1-1h0.1
	C561.3,273.4,561.7,273.8,561.7,274.4L561.7,274.4z"/>
<path class="st9" d="M562,359.2c-0.1-0.1-0.3-0.2-0.5-0.2h-11.3l-6.2-6.2c-0.2-0.4-0.7-0.5-1.1-0.3c-0.4,0.2-0.5,0.7-0.3,1.1
	c0.1,0.1,0.2,0.2,0.3,0.3l5,5h-6c-0.5,0-0.8,0.4-0.8,0.8v2.9c0.4,5.9,5.5,10.4,11.4,10c5.3-0.4,9.6-4.6,10-10v-2.9
	C562.4,359.6,562.3,359.4,562,359.2z M551.7,371c-4,0-7.5-2.6-8.7-6.5h17.4C559.2,368.4,555.7,371,551.7,371z M560.7,362.7v0.1h-18
	v-0.1c0-0.2,0-0.5,0-0.7s0-0.5,0-0.7v-0.5h18v0.5c0,0.2,0,0.5,0,0.7S560.7,362.4,560.7,362.7L560.7,362.7z"/>
<path class="st9" d="M134.3,206.7c0-4.2,3.9-6.8,7.8-6.8c3.6,0,6.9,2.5,6.9,6.3c0,3.6-1.8,7.5-5.9,7.5c-1.1,0-2.1-0.5-2.6-1.4
	c-0.9,3.4-0.8,4-2.7,6.6l-0.2,0.1l-0.1-0.1c-0.1-0.7-0.2-1.4-0.2-2.1c0-2.3,1.1-5.7,1.6-8c-0.3-0.6-0.4-1.3-0.4-1.9
	c0-1.2,0.8-2.6,2.1-2.6c0.8,0,1.5,0.6,1.5,1.4c0,0.1,0,0.2,0,0.2c0,1.5-1,2.9-1,4.3c0,0.9,0.8,1.7,1.7,1.7c0,0,0,0,0.1,0
	c2.6,0,3.4-3.8,3.4-5.8c0-2.7-1.9-4.2-4.5-4.2c-2.8-0.1-5.2,2.1-5.3,4.9c0,0.1,0,0.2,0,0.3c0,1.5,0.9,2.2,0.9,2.6s-0.2,1.4-0.6,1.4
	c-0.1,0-0.1,0-0.2,0C134.9,210.4,134.3,208.2,134.3,206.7z"/>
<path class="st7" d="M93.4,206.7c0-4.2,3.9-6.8,7.8-6.8c3.6,0,6.9,2.5,6.9,6.3c0,3.6-1.8,7.5-5.9,7.5c-1.1,0-2.1-0.5-2.6-1.4
	c-0.9,3.4-0.8,4-2.7,6.6l-0.2,0.1l-0.1-0.1c-0.1-0.7-0.2-1.4-0.2-2.1c0-2.3,1.1-5.7,1.6-8c-0.3-0.6-0.4-1.3-0.4-1.9
	c0-1.2,0.8-2.6,2.1-2.6c0.8,0,1.5,0.6,1.5,1.4c0,0.1,0,0.2,0,0.2c0,1.5-1,2.9-1,4.3c0,0.9,0.8,1.7,1.7,1.7c0,0,0,0,0.1,0
	c2.6,0,3.4-3.8,3.4-5.8c0-2.7-1.9-4.2-4.5-4.2c-2.8-0.1-5.2,2.1-5.3,4.9c0,0.1,0,0.2,0,0.3c0,1.5,0.9,2.2,0.9,2.6s-0.2,1.4-0.6,1.4
	c-0.1,0-0.1,0-0.2,0C93.9,210.4,93.4,208.2,93.4,206.7z"/>
</svg>
