<svg xmlns="http://www.w3.org/2000/svg" xmlns:xlink="http://www.w3.org/1999/xlink" xmlns:ev="http://www.w3.org/2001/xml-events" version="1.1" width="867.1953125" height="1073" viewBox="-15 -15 867.1953125 1073"><text style="font-family: Verdana; font-size: 12px; font-weight: normal; fill: #000000; line-height: 15px;" transform="translate(404, 15)"><tspan x="0" y="0">1. Headsail</tspan><tspan x="0" y="15">2. Top of the sail</tspan><tspan x="0" y="30">3. Back of the sail</tspan><tspan x="0" y="45">4. Front of the sail</tspan><tspan x="0" y="60">5. Dinghy's removable keel</tspan><tspan x="0" y="75">6. Where the sheets connect to the Headsail</tspan><tspan x="0" y="90">7. Helps tell how well you are trimmed</tspan><tspan x="0" y="105">8. Used to hoist the sail</tspan><tspan x="0" y="120">9. Line tied to the bowplate for tieing up</tspan><tspan x="0" y="135">10. Side of the boat furthest from the wind</tspan><tspan x="0" y="150">11. Flapping of the sails</tspan><tspan x="0" y="165">12. Highest point of sail without luffing</tspan><tspan x="0" y="180">13. to turn the boat toward the direction of the wind</tspan><tspan x="0" y="195">14. to turn the boat away from the wind</tspan><tspan x="0" y="210">15. when over-taking a powerboat from behind</tspan><tspan x="0" y="225">16. when approaching a sailboat on the same tack and you are</tspan><tspan x="0" y="240">leeward boat</tspan><tspan x="0" y="255">17. fastest point of sail for most boats</tspan><tspan x="0" y="270">18. ACSC's Webmaster</tspan></text><g><g><rect x="109" y="283" width="35" height="35" fill="#000000"></rect><rect x="179" y="283" width="35" height="35" fill="#000000"></rect><rect x="109" y="318" width="35" height="35" fill="#000000"></rect><rect x="144" y="318" width="35" height="35" fill="#000000"></rect><rect x="179" y="318" width="35" height="35" fill="#000000"></rect><rect x="74" y="318" width="35" height="35" fill="#000000"></rect><rect x="109" y="353" width="35" height="35" fill="#000000"></rect><rect x="249" y="353" width="35" height="35" fill="#000000"></rect><rect x="109" y="388" width="35" height="35" fill="#000000"></rect><rect x="179" y="388" width="35" height="35" fill="#000000"></rect><rect x="249" y="388" width="35" height="35" fill="#000000"></rect><rect x="109" y="423" width="35" height="35" fill="#000000"></rect><rect x="144" y="423" width="35" height="35" fill="#000000"></rect><rect x="179" y="423" width="35" height="35" fill="#000000"></rect><rect x="214" y="423" width="35" height="35" fill="#000000"></rect><rect x="249" y="423" width="35" height="35" fill="#000000"></rect><rect x="284" y="423" width="35" height="35" fill="#000000"></rect><rect x="74" y="423" width="35" height="35" fill="#000000"></rect><rect x="4" y="423" width="35" height="35" fill="#000000"></rect><rect x="109" y="458" width="35" height="35" fill="#000000"></rect><rect x="179" y="458" width="35" height="35" fill="#000000"></rect><rect x="249" y="458" width="35" height="35" fill="#000000"></rect><rect x="4" y="458" width="35" height="35" fill="#000000"></rect><rect x="109" y="493" width="35" height="35" fill="#000000"></rect><rect x="179" y="493" width="35" height="35" fill="#000000"></rect><rect x="4" y="493" width="35" height="35" fill="#000000"></rect><rect x="144" y="528" width="35" height="35" fill="#000000"></rect><rect x="179" y="528" width="35" height="35" fill="#000000"></rect><rect x="214" y="528" width="35" height="35" fill="#000000"></rect><rect x="249" y="528" width="35" height="35" fill="#000000"></rect><rect x="284" y="528" width="35" height="35" fill="#000000"></rect><rect x="4" y="528" width="35" height="35" fill="#000000"></rect><rect x="179" y="563" width="35" height="35" fill="#000000"></rect><rect x="284" y="563" width="35" height="35" fill="#000000"></rect><rect x="4" y="563" width="35" height="35" fill="#000000"></rect><rect x="179" y="598" width="35" height="35" fill="#000000"></rect><rect x="284" y="598" width="35" height="35" fill="#000000"></rect><rect x="4" y="598" width="35" height="35" fill="#000000"></rect><rect x="179" y="633" width="35" height="35" fill="#000000"></rect><rect x="284" y="633" width="35" height="35" fill="#000000"></rect><rect x="4" y="633" width="35" height="35" fill="#000000"></rect><rect x="179" y="668" width="35" height="35" fill="#000000"></rect><rect x="249" y="668" width="35" height="35" fill="#000000"></rect><rect x="284" y="668" width="35" height="35" fill="#000000"></rect><rect x="319" y="668" width="35" height="35" fill="#000000"></rect><rect x="74" y="668" width="35" height="35" fill="#000000"></rect><rect x="4" y="668" width="35" height="35" fill="#000000"></rect><rect x="109" y="703" width="35" height="35" fill="#000000"></rect><rect x="144" y="703" width="35" height="35" fill="#000000"></rect><rect x="179" y="703" width="35" height="35" fill="#000000"></rect><rect x="214" y="703" width="35" height="35" fill="#000000"></rect><rect x="284" y="703" width="35" height="35" fill="#000000"></rect><rect x="4" y="703" width="35" height="35" fill="#000000"></rect><rect x="39" y="703" width="35" height="35" fill="#000000"></rect><rect x="74" y="703" width="35" height="35" fill="#000000"></rect><rect x="179" y="738" width="35" height="35" fill="#000000"></rect><rect x="284" y="738" width="35" height="35" fill="#000000"></rect><rect x="74" y="738" width="35" height="35" fill="#000000"></rect><rect x="4" y="738" width="35" height="35" fill="#000000"></rect><rect x="284" y="773" width="35" height="35" fill="#000000"></rect><rect x="74" y="773" width="35" height="35" fill="#000000"></rect><rect x="4" y="773" width="35" height="35" fill="#000000"></rect><rect x="214" y="808" width="35" height="35" fill="#000000"></rect><rect x="284" y="808" width="35" height="35" fill="#000000"></rect><rect x="74" y="808" width="35" height="35" fill="#000000"></rect><rect x="109" y="843" width="35" height="35" fill="#000000"></rect><rect x="144" y="843" width="35" height="35" fill="#000000"></rect><rect x="179" y="843" width="35" height="35" fill="#000000"></rect><rect x="214" y="843" width="35" height="35" fill="#000000"></rect><rect x="249" y="843" width="35" height="35" fill="#000000"></rect><rect x="74" y="843" width="35" height="35" fill="#000000"></rect><rect x="39" y="843" width="35" height="35" fill="#000000"></rect><rect x="214" y="878" width="35" height="35" fill="#000000"></rect><rect x="74" y="878" width="35" height="35" fill="#000000"></rect><rect x="109" y="913" width="35" height="35" fill="#000000"></rect><rect x="144" y="913" width="35" height="35" fill="#000000"></rect><rect x="214" y="913" width="35" height="35" fill="#000000"></rect><rect x="74" y="913" width="35" height="35" fill="#000000"></rect><rect x="39" y="913" width="35" height="35" fill="#000000"></rect><rect x="179" y="248" width="35" height="35" fill="#000000"></rect><rect x="179" y="3" width="35" height="35" fill="#000000"></rect><rect x="144" y="38" width="35" height="35" fill="#000000"></rect><rect x="179" y="38" width="35" height="35" fill="#000000"></rect><rect x="214" y="38" width="35" height="35" fill="#000000"></rect><rect x="249" y="38" width="35" height="35" fill="#000000"></rect><rect x="284" y="38" width="35" height="35" fill="#000000"></rect><rect x="319" y="38" width="35" height="35" fill="#000000"></rect><rect x="354" y="38" width="35" height="35" fill="#000000"></rect><rect x="179" y="73" width="35" height="35" fill="#000000"></rect><rect x="144" y="108" width="35" height="35" fill="#000000"></rect><rect x="179" y="108" width="35" height="35" fill="#000000"></rect><rect x="214" y="108" width="35" height="35" fill="#000000"></rect><rect x="249" y="108" width="35" height="35" fill="#000000"></rect><rect x="179" y="143" width="35" height="35" fill="#000000"></rect><rect x="109" y="178" width="35" height="35" fill="#000000"></rect><rect x="144" y="178" width="35" height="35" fill="#000000"></rect><rect x="179" y="178" width="35" height="35" fill="#000000"></rect><rect x="214" y="178" width="35" height="35" fill="#000000"></rect><rect x="249" y="178" width="35" height="35" fill="#000000"></rect><rect x="284" y="178" width="35" height="35" fill="#000000"></rect><rect x="74" y="178" width="35" height="35" fill="#000000"></rect><rect x="179" y="213" width="35" height="35" fill="#000000"></rect></g><g transform="translate(105, 280)"><rect x="0" y="0" width="35" height="35" fill="#ffffff" stroke="#000000" stroke-width="1"></rect><text y="23.75" style="line-height: 1; font-family: Verdana; font-size: 16px; font-weight: bold; fill: #000000;" x="12.403892517089844">L</text><text x="0.5" y="10.5" style="line-height: 1; font-family: Verdana; font-size: 10px; font-weight: normal; fill: #000000;">▾11</text></g><g transform="translate(175, 280)"><rect x="0" y="0" width="35" height="35" fill="#ffffff" stroke="#000000" stroke-width="1"></rect><text y="23.75" style="line-height: 1; font-family: Verdana; font-size: 16px; font-weight: bold; fill: #000000;" x="12.298457145690918">F</text></g><g transform="translate(105, 315)"><rect x="0" y="0" width="35" height="35" fill="#ffffff" stroke="#000000" stroke-width="1"></rect><text y="23.75" style="line-height: 1; font-family: Verdana; font-size: 16px; font-weight: bold; fill: #000000;" x="11.00588083267212">U</text></g><g transform="translate(140, 315)"><rect x="0" y="0" width="35" height="35" fill="#ffffff" stroke="#000000" stroke-width="1"></rect><text y="23.75" style="line-height: 1; font-family: Verdana; font-size: 16px; font-weight: bold; fill: #000000;" x="12.298457145690918">F</text></g><g transform="translate(175, 315)"><rect x="0" y="0" width="35" height="35" fill="#ffffff" stroke="#000000" stroke-width="1"></rect><text y="23.75" style="line-height: 1; font-family: Verdana; font-size: 16px; font-weight: bold; fill: #000000;" x="12.298457145690918">F</text></g><g transform="translate(70, 315)"><rect x="0" y="0" width="35" height="35" fill="#ffffff" stroke="#000000" stroke-width="1"></rect><text y="23.75" style="line-height: 1; font-family: Verdana; font-size: 16px; font-weight: bold; fill: #000000;" x="12.403892517089844">L</text><text x="0.5" y="10.5" style="line-height: 1; font-family: Verdana; font-size: 10px; font-weight: normal; fill: #000000;">▸4</text></g><g transform="translate(105, 350)"><rect x="0" y="0" width="35" height="35" fill="#ffffff" stroke="#000000" stroke-width="1"></rect><text y="23.75" style="line-height: 1; font-family: Verdana; font-size: 16px; font-weight: bold; fill: #000000;" x="12.298457145690918">F</text></g><g transform="translate(245, 350)"><rect x="0" y="0" width="35" height="35" fill="#ffffff" stroke="#000000" stroke-width="1"></rect><text y="23.75" style="line-height: 1; font-family: Verdana; font-size: 16px; font-weight: bold; fill: #000000;" x="10.802815437316895">H</text><text x="0.5" y="10.5" style="line-height: 1; font-family: Verdana; font-size: 10px; font-weight: normal; fill: #000000;">▾2</text></g><g transform="translate(105, 385)"><rect x="0" y="0" width="35" height="35" fill="#ffffff" stroke="#000000" stroke-width="1"></rect><text y="23.75" style="line-height: 1; font-family: Verdana; font-size: 16px; font-weight: bold; fill: #000000;" x="12.298457145690918">F</text></g><g transform="translate(175, 385)"><rect x="0" y="0" width="35" height="35" fill="#ffffff" stroke="#000000" stroke-width="1"></rect><text y="23.75" style="line-height: 1; font-family: Verdana; font-size: 16px; font-weight: bold; fill: #000000;" x="11.712697505950928">C</text><text x="0.5" y="10.5" style="line-height: 1; font-family: Verdana; font-size: 10px; font-weight: normal; fill: #000000;">▾5</text></g><g transform="translate(245, 385)"><rect x="0" y="0" width="35" height="35" fill="#ffffff" stroke="#000000" stroke-width="1"></rect><text y="23.75" style="line-height: 1; font-family: Verdana; font-size: 16px; font-weight: bold; fill: #000000;" x="12.036816120147705">E</text></g><g transform="translate(105, 420)"><rect x="0" y="0" width="35" height="35" fill="#ffffff" stroke="#000000" stroke-width="1"></rect><text y="23.75" style="line-height: 1; font-family: Verdana; font-size: 16px; font-weight: bold; fill: #000000;" x="13.134139060974121">I</text></g><g transform="translate(140, 420)"><rect x="0" y="0" width="35" height="35" fill="#ffffff" stroke="#000000" stroke-width="1"></rect><text y="23.75" style="line-height: 1; font-family: Verdana; font-size: 16px; font-weight: bold; fill: #000000;" x="11.392481327056885">V</text></g><g transform="translate(175, 420)"><rect x="0" y="0" width="35" height="35" fill="#ffffff" stroke="#000000" stroke-width="1"></rect><text y="23.75" style="line-height: 1; font-family: Verdana; font-size: 16px; font-weight: bold; fill: #000000;" x="12.036816120147705">E</text></g><g transform="translate(210, 420)"><rect x="0" y="0" width="35" height="35" fill="#ffffff" stroke="#000000" stroke-width="1"></rect><text y="23.75" style="line-height: 1; font-family: Verdana; font-size: 16px; font-weight: bold; fill: #000000;" x="8.475398063659668">W</text></g><g transform="translate(245, 420)"><rect x="0" y="0" width="35" height="35" fill="#ffffff" stroke="#000000" stroke-width="1"></rect><text y="23.75" style="line-height: 1; font-family: Verdana; font-size: 16px; font-weight: bold; fill: #000000;" x="11.290948390960693">A</text></g><g transform="translate(280, 420)"><rect x="0" y="0" width="35" height="35" fill="#ffffff" stroke="#000000" stroke-width="1"></rect><text y="23.75" style="line-height: 1; font-family: Verdana; font-size: 16px; font-weight: bold; fill: #000000;" x="11.607258319854736">Y</text></g><g transform="translate(70, 420)"><rect x="0" y="0" width="35" height="35" fill="#0a90bd" stroke="#000000" stroke-width="1"></rect><text y="23.75" style="line-height: 1; font-family: Verdana; font-size: 16px; font-weight: bold; fill: #000000;" x="11.013689994812012">G</text><text x="0.5" y="10.5" style="line-height: 1; font-family: Verdana; font-size: 10px; font-weight: normal; fill: #000000;">▸15</text></g><g transform="translate(0, 420)"><rect x="0" y="0" width="35" height="35" fill="#ffffff" stroke="#000000" stroke-width="1"></rect><text y="23.75" style="line-height: 1; font-family: Verdana; font-size: 16px; font-weight: bold; fill: #000000;" x="11.712697505950928">C</text><text x="0.5" y="10.5" style="line-height: 1; font-family: Verdana; font-size: 10px; font-weight: normal; fill: #000000;">▾12</text></g><g transform="translate(105, 455)"><rect x="0" y="0" width="35" height="35" fill="#ffffff" stroke="#000000" stroke-width="1"></rect><text y="23.75" style="line-height: 1; font-family: Verdana; font-size: 16px; font-weight: bold; fill: #000000;" x="10.728618621826172">N</text></g><g transform="translate(175, 455)"><rect x="0" y="0" width="35" height="35" fill="#ffffff" stroke="#000000" stroke-width="1"></rect><text y="23.75" style="line-height: 1; font-family: Verdana; font-size: 16px; font-weight: bold; fill: #000000;" x="10.728618621826172">N</text></g><g transform="translate(245, 455)"><rect x="0" y="0" width="35" height="35" fill="#ffffff" stroke="#000000" stroke-width="1"></rect><text y="23.75" style="line-height: 1; font-family: Verdana; font-size: 16px; font-weight: bold; fill: #000000;" x="10.861390590667725">D</text></g><g transform="translate(0, 455)"><rect x="0" y="0" width="35" height="35" fill="#0a90bd" stroke="#000000" stroke-width="1"></rect><text y="23.75" style="line-height: 1; font-family: Verdana; font-size: 16px; font-weight: bold; fill: #000000;" x="12.403892517089844">L</text></g><g transform="translate(105, 490)"><rect x="0" y="0" width="35" height="35" fill="#ffffff" stroke="#000000" stroke-width="1"></rect><text y="23.75" style="line-height: 1; font-family: Verdana; font-size: 16px; font-weight: bold; fill: #000000;" x="11.013689994812012">G</text></g><g transform="translate(175, 490)"><rect x="0" y="0" width="35" height="35" fill="#ffffff" stroke="#000000" stroke-width="1"></rect><text y="23.75" style="line-height: 1; font-family: Verdana; font-size: 16px; font-weight: bold; fill: #000000;" x="12.04853105545044">T</text></g><g transform="translate(0, 490)"><rect x="0" y="0" width="35" height="35" fill="#ffffff" stroke="#000000" stroke-width="1"></rect><text y="23.75" style="line-height: 1; font-family: Verdana; font-size: 16px; font-weight: bold; fill: #000000;" x="10.701286315917969">O</text></g><g transform="translate(140, 525)"><rect x="0" y="0" width="35" height="35" fill="#ffffff" stroke="#000000" stroke-width="1"></rect><text y="23.75" style="line-height: 1; font-family: Verdana; font-size: 16px; font-weight: bold; fill: #000000;" x="12.403892517089844">L</text><text x="0.5" y="10.5" style="line-height: 1; font-family: Verdana; font-size: 10px; font-weight: normal; fill: #000000;">▸3</text></g><g transform="translate(175, 525)"><rect x="0" y="0" width="35" height="35" fill="#ffffff" stroke="#000000" stroke-width="1"></rect><text y="23.75" style="line-height: 1; font-family: Verdana; font-size: 16px; font-weight: bold; fill: #000000;" x="12.036816120147705">E</text></g><g transform="translate(210, 525)"><rect x="0" y="0" width="35" height="35" fill="#0a90bd" stroke="#000000" stroke-width="1"></rect><text y="23.75" style="line-height: 1; font-family: Verdana; font-size: 16px; font-weight: bold; fill: #000000;" x="11.290948390960693">A</text></g><g transform="translate(245, 525)"><rect x="0" y="0" width="35" height="35" fill="#ffffff" stroke="#000000" stroke-width="1"></rect><text y="23.75" style="line-height: 1; font-family: Verdana; font-size: 16px; font-weight: bold; fill: #000000;" x="11.712697505950928">C</text></g><g transform="translate(280, 525)"><rect x="0" y="0" width="35" height="35" fill="#ffffff" stroke="#000000" stroke-width="1"></rect><text y="23.75" style="line-height: 1; font-family: Verdana; font-size: 16px; font-weight: bold; fill: #000000;" x="10.802815437316895">H</text><text x="0.5" y="10.5" style="line-height: 1; font-family: Verdana; font-size: 10px; font-weight: normal; fill: #000000;">▾13</text></g><g transform="translate(0, 525)"><rect x="0" y="0" width="35" height="35" fill="#0a90bd" stroke="#000000" stroke-width="1"></rect><text y="23.75" style="line-height: 1; font-family: Verdana; font-size: 16px; font-weight: bold; fill: #000000;" x="11.818132877349854">S</text></g><g transform="translate(175, 560)"><rect x="0" y="0" width="35" height="35" fill="#ffffff" stroke="#000000" stroke-width="1"></rect><text y="23.75" style="line-height: 1; font-family: Verdana; font-size: 16px; font-weight: bold; fill: #000000;" x="11.244088172912598">R</text></g><g transform="translate(280, 560)"><rect x="0" y="0" width="35" height="35" fill="#0a90bd" stroke="#000000" stroke-width="1"></rect><text y="23.75" style="line-height: 1; font-family: Verdana; font-size: 16px; font-weight: bold; fill: #000000;" x="12.036816120147705">E</text></g><g transform="translate(0, 560)"><rect x="0" y="0" width="35" height="35" fill="#ffffff" stroke="#000000" stroke-width="1"></rect><text y="23.75" style="line-height: 1; font-family: Verdana; font-size: 16px; font-weight: bold; fill: #000000;" x="12.036816120147705">E</text></g><g transform="translate(175, 595)"><rect x="0" y="0" width="35" height="35" fill="#ffffff" stroke="#000000" stroke-width="1"></rect><text y="23.75" style="line-height: 1; font-family: Verdana; font-size: 16px; font-weight: bold; fill: #000000;" x="11.40810251235962">B</text></g><g transform="translate(280, 595)"><rect x="0" y="0" width="35" height="35" fill="#ffffff" stroke="#000000" stroke-width="1"></rect><text y="23.75" style="line-height: 1; font-family: Verdana; font-size: 16px; font-weight: bold; fill: #000000;" x="11.290948390960693">A</text></g><g transform="translate(0, 595)"><rect x="0" y="0" width="35" height="35" fill="#ffffff" stroke="#000000" stroke-width="1"></rect><text y="23.75" style="line-height: 1; font-family: Verdana; font-size: 16px; font-weight: bold; fill: #000000;" x="10.802815437316895">H</text></g><g transform="translate(175, 630)"><rect x="0" y="0" width="35" height="35" fill="#ffffff" stroke="#000000" stroke-width="1"></rect><text y="23.75" style="line-height: 1; font-family: Verdana; font-size: 16px; font-weight: bold; fill: #000000;" x="10.701286315917969">O</text></g><g transform="translate(280, 630)"><rect x="0" y="0" width="35" height="35" fill="#ffffff" stroke="#000000" stroke-width="1"></rect><text y="23.75" style="line-height: 1; font-family: Verdana; font-size: 16px; font-weight: bold; fill: #000000;" x="10.861390590667725">D</text></g><g transform="translate(0, 630)"><rect x="0" y="0" width="35" height="35" fill="#ffffff" stroke="#000000" stroke-width="1"></rect><text y="23.75" style="line-height: 1; font-family: Verdana; font-size: 16px; font-weight: bold; fill: #000000;" x="11.290948390960693">A</text></g><g transform="translate(175, 665)"><rect x="0" y="0" width="35" height="35" fill="#ffffff" stroke="#000000" stroke-width="1"></rect><text y="23.75" style="line-height: 1; font-family: Verdana; font-size: 16px; font-weight: bold; fill: #000000;" x="11.290948390960693">A</text></g><g transform="translate(245, 665)"><rect x="0" y="0" width="35" height="35" fill="#ffffff" stroke="#000000" stroke-width="1"></rect><text y="23.75" style="line-height: 1; font-family: Verdana; font-size: 16px; font-weight: bold; fill: #000000;" x="13.059942245483398">J</text><text x="0.5" y="10.5" style="line-height: 1; font-family: Verdana; font-size: 10px; font-weight: normal; fill: #000000;">▸1</text></g><g transform="translate(280, 665)"><rect x="0" y="0" width="35" height="35" fill="#0a90bd" stroke="#000000" stroke-width="1"></rect><text y="23.75" style="line-height: 1; font-family: Verdana; font-size: 16px; font-weight: bold; fill: #000000;" x="13.134139060974121">I</text></g><g transform="translate(315, 665)"><rect x="0" y="0" width="35" height="35" fill="#ffffff" stroke="#000000" stroke-width="1"></rect><text y="23.75" style="line-height: 1; font-family: Verdana; font-size: 16px; font-weight: bold; fill: #000000;" x="11.40810251235962">B</text></g><g transform="translate(70, 665)"><rect x="0" y="0" width="35" height="35" fill="#ffffff" stroke="#000000" stroke-width="1"></rect><text y="23.75" style="line-height: 1; font-family: Verdana; font-size: 16px; font-weight: bold; fill: #000000;" x="12.04853105545044">T</text><text x="0.5" y="10.5" style="line-height: 1; font-family: Verdana; font-size: 10px; font-weight: normal; fill: #000000;">▾7</text></g><g transform="translate(0, 665)"><rect x="0" y="0" width="35" height="35" fill="#ffffff" stroke="#000000" stroke-width="1"></rect><text y="23.75" style="line-height: 1; font-family: Verdana; font-size: 16px; font-weight: bold; fill: #000000;" x="11.00588083267212">U</text></g><g transform="translate(105, 700)"><rect x="0" y="0" width="35" height="35" fill="#ffffff" stroke="#000000" stroke-width="1"></rect><text y="23.75" style="line-height: 1; font-family: Verdana; font-size: 16px; font-weight: bold; fill: #000000;" x="8.475398063659668">W</text></g><g transform="translate(140, 700)"><rect x="0" y="0" width="35" height="35" fill="#ffffff" stroke="#000000" stroke-width="1"></rect><text y="23.75" style="line-height: 1; font-family: Verdana; font-size: 16px; font-weight: bold; fill: #000000;" x="11.290948390960693">A</text></g><g transform="translate(175, 700)"><rect x="0" y="0" width="35" height="35" fill="#0a90bd" stroke="#000000" stroke-width="1"></rect><text y="23.75" style="line-height: 1; font-family: Verdana; font-size: 16px; font-weight: bold; fill: #000000;" x="11.244088172912598">R</text></g><g transform="translate(210, 700)"><rect x="0" y="0" width="35" height="35" fill="#ffffff" stroke="#000000" stroke-width="1"></rect><text y="23.75" style="line-height: 1; font-family: Verdana; font-size: 16px; font-weight: bold; fill: #000000;" x="10.861390590667725">D</text></g><g transform="translate(280, 700)"><rect x="0" y="0" width="35" height="35" fill="#ffffff" stroke="#000000" stroke-width="1"></rect><text y="23.75" style="line-height: 1; font-family: Verdana; font-size: 16px; font-weight: bold; fill: #000000;" x="10.728618621826172">N</text></g><g transform="translate(0, 700)"><rect x="0" y="0" width="35" height="35" fill="#ffffff" stroke="#000000" stroke-width="1"></rect><text y="23.75" style="line-height: 1; font-family: Verdana; font-size: 16px; font-weight: bold; fill: #000000;" x="12.403892517089844">L</text><text x="0.5" y="10.5" style="line-height: 1; font-family: Verdana; font-size: 10px; font-weight: normal; fill: #000000;">▸10</text></g><g transform="translate(35, 700)"><rect x="0" y="0" width="35" height="35" fill="#ffffff" stroke="#000000" stroke-width="1"></rect><text y="23.75" style="line-height: 1; font-family: Verdana; font-size: 16px; font-weight: bold; fill: #000000;" x="12.036816120147705">E</text></g><g transform="translate(70, 700)"><rect x="0" y="0" width="35" height="35" fill="#ffffff" stroke="#000000" stroke-width="1"></rect><text y="23.75" style="line-height: 1; font-family: Verdana; font-size: 16px; font-weight: bold; fill: #000000;" x="12.036816120147705">E</text></g><g transform="translate(175, 735)"><rect x="0" y="0" width="35" height="35" fill="#ffffff" stroke="#000000" stroke-width="1"></rect><text y="23.75" style="line-height: 1; font-family: Verdana; font-size: 16px; font-weight: bold; fill: #000000;" x="10.861390590667725">D</text></g><g transform="translate(280, 735)"><rect x="0" y="0" width="35" height="35" fill="#ffffff" stroke="#000000" stroke-width="1"></rect><text y="23.75" style="line-height: 1; font-family: Verdana; font-size: 16px; font-weight: bold; fill: #000000;" x="11.013689994812012">G</text></g><g transform="translate(70, 735)"><rect x="0" y="0" width="35" height="35" fill="#0a90bd" stroke="#000000" stroke-width="1"></rect><text y="23.75" style="line-height: 1; font-family: Verdana; font-size: 16px; font-weight: bold; fill: #000000;" x="12.403892517089844">L</text></g><g transform="translate(0, 735)"><rect x="0" y="0" width="35" height="35" fill="#ffffff" stroke="#000000" stroke-width="1"></rect><text y="23.75" style="line-height: 1; font-family: Verdana; font-size: 16px; font-weight: bold; fill: #000000;" x="12.036816120147705">E</text></g><g transform="translate(280, 770)"><rect x="0" y="0" width="35" height="35" fill="#ffffff" stroke="#000000" stroke-width="1"></rect><text y="23.75" style="line-height: 1; font-family: Verdana; font-size: 16px; font-weight: bold; fill: #000000;" x="11.00588083267212">U</text></g><g transform="translate(70, 770)"><rect x="0" y="0" width="35" height="35" fill="#ffffff" stroke="#000000" stroke-width="1"></rect><text y="23.75" style="line-height: 1; font-family: Verdana; font-size: 16px; font-weight: bold; fill: #000000;" x="12.403892517089844">L</text></g><g transform="translate(0, 770)"><rect x="0" y="0" width="35" height="35" fill="#ffffff" stroke="#000000" stroke-width="1"></rect><text y="23.75" style="line-height: 1; font-family: Verdana; font-size: 16px; font-weight: bold; fill: #000000;" x="10.861390590667725">D</text></g><g transform="translate(210, 805)"><rect x="0" y="0" width="35" height="35" fill="#ffffff" stroke="#000000" stroke-width="1"></rect><text y="23.75" style="line-height: 1; font-family: Verdana; font-size: 16px; font-weight: bold; fill: #000000;" x="12.036816120147705">E</text><text x="0.5" y="10.5" style="line-height: 1; font-family: Verdana; font-size: 10px; font-weight: normal; fill: #000000;">▾18</text></g><g transform="translate(280, 805)"><rect x="0" y="0" width="35" height="35" fill="#ffffff" stroke="#000000" stroke-width="1"></rect><text y="23.75" style="line-height: 1; font-family: Verdana; font-size: 16px; font-weight: bold; fill: #000000;" x="11.638500690460205">P</text></g><g transform="translate(70, 805)"><rect x="0" y="0" width="35" height="35" fill="#ffffff" stroke="#000000" stroke-width="1"></rect><text y="23.75" style="line-height: 1; font-family: Verdana; font-size: 16px; font-weight: bold; fill: #000000;" x="12.04853105545044">T</text></g><g transform="translate(105, 840)"><rect x="0" y="0" width="35" height="35" fill="#ffffff" stroke="#000000" stroke-width="1"></rect><text y="23.75" style="line-height: 1; font-family: Verdana; font-size: 16px; font-weight: bold; fill: #000000;" x="12.403892517089844">L</text></g><g transform="translate(140, 840)"><rect x="0" y="0" width="35" height="35" fill="#ffffff" stroke="#000000" stroke-width="1"></rect><text y="23.75" style="line-height: 1; font-family: Verdana; font-size: 16px; font-weight: bold; fill: #000000;" x="11.607258319854736">Y</text></g><g transform="translate(175, 840)"><rect x="0" y="0" width="35" height="35" fill="#ffffff" stroke="#000000" stroke-width="1"></rect><text y="23.75" style="line-height: 1; font-family: Verdana; font-size: 16px; font-weight: bold; fill: #000000;" x="11.290948390960693">A</text></g><g transform="translate(210, 840)"><rect x="0" y="0" width="35" height="35" fill="#ffffff" stroke="#000000" stroke-width="1"></rect><text y="23.75" style="line-height: 1; font-family: Verdana; font-size: 16px; font-weight: bold; fill: #000000;" x="11.244088172912598">R</text></g><g transform="translate(245, 840)"><rect x="0" y="0" width="35" height="35" fill="#ffffff" stroke="#000000" stroke-width="1"></rect><text y="23.75" style="line-height: 1; font-family: Verdana; font-size: 16px; font-weight: bold; fill: #000000;" x="10.861390590667725">D</text></g><g transform="translate(70, 840)"><rect x="0" y="0" width="35" height="35" fill="#0a90bd" stroke="#000000" stroke-width="1"></rect><text y="23.75" style="line-height: 1; font-family: Verdana; font-size: 16px; font-weight: bold; fill: #000000;" x="11.290948390960693">A</text></g><g transform="translate(35, 840)"><rect x="0" y="0" width="35" height="35" fill="#ffffff" stroke="#000000" stroke-width="1"></rect><text y="23.75" style="line-height: 1; font-family: Verdana; font-size: 16px; font-weight: bold; fill: #000000;" x="10.802815437316895">H</text><text x="0.5" y="10.5" style="line-height: 1; font-family: Verdana; font-size: 10px; font-weight: normal; fill: #000000;">▸8</text></g><g transform="translate(210, 875)"><rect x="0" y="0" width="35" height="35" fill="#ffffff" stroke="#000000" stroke-width="1"></rect><text y="23.75" style="line-height: 1; font-family: Verdana; font-size: 16px; font-weight: bold; fill: #000000;" x="13.134139060974121">I</text></g><g transform="translate(70, 875)"><rect x="0" y="0" width="35" height="35" fill="#ffffff" stroke="#000000" stroke-width="1"></rect><text y="23.75" style="line-height: 1; font-family: Verdana; font-size: 16px; font-weight: bold; fill: #000000;" x="12.403892517089844">L</text></g><g transform="translate(105, 910)"><rect x="0" y="0" width="35" height="35" fill="#0a90bd" stroke="#000000" stroke-width="1"></rect><text y="23.75" style="line-height: 1; font-family: Verdana; font-size: 16px; font-weight: bold; fill: #000000;" x="11.290948390960693">A</text></g><g transform="translate(140, 910)"><rect x="0" y="0" width="35" height="35" fill="#0a90bd" stroke="#000000" stroke-width="1"></rect><text y="23.75" style="line-height: 1; font-family: Verdana; font-size: 16px; font-weight: bold; fill: #000000;" x="9.920273303985596">M</text></g><g transform="translate(210, 910)"><rect x="0" y="0" width="35" height="35" fill="#ffffff" stroke="#000000" stroke-width="1"></rect><text y="23.75" style="line-height: 1; font-family: Verdana; font-size: 16px; font-weight: bold; fill: #000000;" x="11.712697505950928">C</text></g><g transform="translate(70, 910)"><rect x="0" y="0" width="35" height="35" fill="#ffffff" stroke="#000000" stroke-width="1"></rect><text y="23.75" style="line-height: 1; font-family: Verdana; font-size: 16px; font-weight: bold; fill: #000000;" x="12.036816120147705">E</text></g><g transform="translate(35, 910)"><rect x="0" y="0" width="35" height="35" fill="#ffffff" stroke="#000000" stroke-width="1"></rect><text y="23.75" style="line-height: 1; font-family: Verdana; font-size: 16px; font-weight: bold; fill: #000000;" x="11.40810251235962">B</text><text x="0.5" y="10.5" style="line-height: 1; font-family: Verdana; font-size: 10px; font-weight: normal; fill: #000000;">▸17</text></g><g transform="translate(175, 245)"><rect x="0" y="0" width="35" height="35" fill="#0a90bd" stroke="#000000" stroke-width="1"></rect><text y="23.75" style="line-height: 1; font-family: Verdana; font-size: 16px; font-weight: bold; fill: #000000;" x="10.701286315917969">O</text></g><g transform="translate(175, 0)"><rect x="0" y="0" width="35" height="35" fill="#ffffff" stroke="#000000" stroke-width="1"></rect><text y="23.75" style="line-height: 1; font-family: Verdana; font-size: 16px; font-weight: bold; fill: #000000;" x="12.298457145690918">F</text><text x="0.5" y="10.5" style="line-height: 1; font-family: Verdana; font-size: 10px; font-weight: normal; fill: #000000;">▾14</text></g><g transform="translate(140, 35)"><rect x="0" y="0" width="35" height="35" fill="#ffffff" stroke="#000000" stroke-width="1"></rect><text y="23.75" style="line-height: 1; font-family: Verdana; font-size: 16px; font-weight: bold; fill: #000000;" x="11.638500690460205">P</text><text x="0.5" y="10.5" style="line-height: 1; font-family: Verdana; font-size: 10px; font-weight: normal; fill: #000000;">▸9</text></g><g transform="translate(175, 35)"><rect x="0" y="0" width="35" height="35" fill="#ffffff" stroke="#000000" stroke-width="1"></rect><text y="23.75" style="line-height: 1; font-family: Verdana; font-size: 16px; font-weight: bold; fill: #000000;" x="11.290948390960693">A</text></g><g transform="translate(210, 35)"><rect x="0" y="0" width="35" height="35" fill="#ffffff" stroke="#000000" stroke-width="1"></rect><text y="23.75" style="line-height: 1; font-family: Verdana; font-size: 16px; font-weight: bold; fill: #000000;" x="13.134139060974121">I</text></g><g transform="translate(245, 35)"><rect x="0" y="0" width="35" height="35" fill="#ffffff" stroke="#000000" stroke-width="1"></rect><text y="23.75" style="line-height: 1; font-family: Verdana; font-size: 16px; font-weight: bold; fill: #000000;" x="10.728618621826172">N</text></g><g transform="translate(280, 35)"><rect x="0" y="0" width="35" height="35" fill="#ffffff" stroke="#000000" stroke-width="1"></rect><text y="23.75" style="line-height: 1; font-family: Verdana; font-size: 16px; font-weight: bold; fill: #000000;" x="12.04853105545044">T</text></g><g transform="translate(315, 35)"><rect x="0" y="0" width="35" height="35" fill="#ffffff" stroke="#000000" stroke-width="1"></rect><text y="23.75" style="line-height: 1; font-family: Verdana; font-size: 16px; font-weight: bold; fill: #000000;" x="12.036816120147705">E</text></g><g transform="translate(350, 35)"><rect x="0" y="0" width="35" height="35" fill="#ffffff" stroke="#000000" stroke-width="1"></rect><text y="23.75" style="line-height: 1; font-family: Verdana; font-size: 16px; font-weight: bold; fill: #000000;" x="11.244088172912598">R</text></g><g transform="translate(175, 70)"><rect x="0" y="0" width="35" height="35" fill="#ffffff" stroke="#000000" stroke-width="1"></rect><text y="23.75" style="line-height: 1; font-family: Verdana; font-size: 16px; font-weight: bold; fill: #000000;" x="12.403892517089844">L</text></g><g transform="translate(140, 105)"><rect x="0" y="0" width="35" height="35" fill="#ffffff" stroke="#000000" stroke-width="1"></rect><text y="23.75" style="line-height: 1; font-family: Verdana; font-size: 16px; font-weight: bold; fill: #000000;" x="11.712697505950928">C</text><text x="0.5" y="10.5" style="line-height: 1; font-family: Verdana; font-size: 10px; font-weight: normal; fill: #000000;">▸6</text></g><g transform="translate(175, 105)"><rect x="0" y="0" width="35" height="35" fill="#ffffff" stroke="#000000" stroke-width="1"></rect><text y="23.75" style="line-height: 1; font-family: Verdana; font-size: 16px; font-weight: bold; fill: #000000;" x="12.403892517089844">L</text></g><g transform="translate(210, 105)"><rect x="0" y="0" width="35" height="35" fill="#ffffff" stroke="#000000" stroke-width="1"></rect><text y="23.75" style="line-height: 1; font-family: Verdana; font-size: 16px; font-weight: bold; fill: #000000;" x="12.036816120147705">E</text></g><g transform="translate(245, 105)"><rect x="0" y="0" width="35" height="35" fill="#ffffff" stroke="#000000" stroke-width="1"></rect><text y="23.75" style="line-height: 1; font-family: Verdana; font-size: 16px; font-weight: bold; fill: #000000;" x="8.475398063659668">W</text></g><g transform="translate(175, 140)"><rect x="0" y="0" width="35" height="35" fill="#ffffff" stroke="#000000" stroke-width="1"></rect><text y="23.75" style="line-height: 1; font-family: Verdana; font-size: 16px; font-weight: bold; fill: #000000;" x="13.134139060974121">I</text></g><g transform="translate(105, 175)"><rect x="0" y="0" width="35" height="35" fill="#ffffff" stroke="#000000" stroke-width="1"></rect><text y="23.75" style="line-height: 1; font-family: Verdana; font-size: 16px; font-weight: bold; fill: #000000;" x="12.04853105545044">T</text></g><g transform="translate(140, 175)"><rect x="0" y="0" width="35" height="35" fill="#0a90bd" stroke="#000000" stroke-width="1"></rect><text y="23.75" style="line-height: 1; font-family: Verdana; font-size: 16px; font-weight: bold; fill: #000000;" x="11.290948390960693">A</text></g><g transform="translate(175, 175)"><rect x="0" y="0" width="35" height="35" fill="#ffffff" stroke="#000000" stroke-width="1"></rect><text y="23.75" style="line-height: 1; font-family: Verdana; font-size: 16px; font-weight: bold; fill: #000000;" x="10.728618621826172">N</text></g><g transform="translate(210, 175)"><rect x="0" y="0" width="35" height="35" fill="#0a90bd" stroke="#000000" stroke-width="1"></rect><text y="23.75" style="line-height: 1; font-family: Verdana; font-size: 16px; font-weight: bold; fill: #000000;" x="10.861390590667725">D</text></g><g transform="translate(245, 175)"><rect x="0" y="0" width="35" height="35" fill="#ffffff" stroke="#000000" stroke-width="1"></rect><text y="23.75" style="line-height: 1; font-family: Verdana; font-size: 16px; font-weight: bold; fill: #000000;" x="10.701286315917969">O</text></g><g transform="translate(280, 175)"><rect x="0" y="0" width="35" height="35" fill="#ffffff" stroke="#000000" stroke-width="1"></rect><text y="23.75" style="line-height: 1; font-family: Verdana; font-size: 16px; font-weight: bold; fill: #000000;" x="10.728618621826172">N</text></g><g transform="translate(70, 175)"><rect x="0" y="0" width="35" height="35" fill="#ffffff" stroke="#000000" stroke-width="1"></rect><text y="23.75" style="line-height: 1; font-family: Verdana; font-size: 16px; font-weight: bold; fill: #000000;" x="11.818132877349854">S</text><text x="0.5" y="10.5" style="line-height: 1; font-family: Verdana; font-size: 10px; font-weight: normal; fill: #000000;">▸16</text></g><g transform="translate(175, 210)"><rect x="0" y="0" width="35" height="35" fill="#ffffff" stroke="#000000" stroke-width="1"></rect><text y="23.75" style="line-height: 1; font-family: Verdana; font-size: 16px; font-weight: bold; fill: #000000;" x="11.013689994812012">G</text></g></g><g transform="translate(0, 963)"><g><rect x="4" y="3" width="35" height="35" fill="#000000"></rect><rect x="39" y="3" width="35" height="35" fill="#000000"></rect><rect x="74" y="3" width="35" height="35" fill="#000000"></rect><rect x="109" y="3" width="35" height="35" fill="#000000"></rect><rect x="144" y="3" width="35" height="35" fill="#000000"></rect><rect x="179" y="3" width="35" height="35" fill="#000000"></rect><rect x="214" y="3" width="35" height="35" fill="#000000"></rect><rect x="249" y="3" width="35" height="35" fill="#000000"></rect><rect x="284" y="3" width="35" height="35" fill="#000000"></rect><rect x="319" y="3" width="35" height="35" fill="#000000"></rect><rect x="354" y="3" width="35" height="35" fill="#000000"></rect><rect x="389" y="3" width="35" height="35" fill="#000000"></rect><rect x="424" y="3" width="35" height="35" fill="#000000"></rect><rect x="459" y="3" width="35" height="35" fill="#000000"></rect><rect x="494" y="3" width="35" height="35" fill="#000000"></rect></g><g transform="translate(0, 0)"><rect x="0" y="0" width="35" height="35" fill="#0a90bd" stroke="#000000" stroke-width="1"></rect><text y="23.75" style="line-height: 1; font-family: Verdana; font-size: 16px; font-weight: bold; fill: #000000;" x="11.818132877349854">S</text></g><g transform="translate(35, 0)"><rect x="0" y="0" width="35" height="35" fill="#0a90bd" stroke="#000000" stroke-width="1"></rect><text y="23.75" style="line-height: 1; font-family: Verdana; font-size: 16px; font-weight: bold; fill: #000000;" x="11.290948390960693">A</text></g><g transform="translate(70, 0)"><rect x="0" y="0" width="35" height="35" fill="#0a90bd" stroke="#000000" stroke-width="1"></rect><text y="23.75" style="line-height: 1; font-family: Verdana; font-size: 16px; font-weight: bold; fill: #000000;" x="13.134139060974121">I</text></g><g transform="translate(105, 0)"><rect x="0" y="0" width="35" height="35" fill="#0a90bd" stroke="#000000" stroke-width="1"></rect><text y="23.75" style="line-height: 1; font-family: Verdana; font-size: 16px; font-weight: bold; fill: #000000;" x="12.403892517089844">L</text></g><g transform="translate(140, 0)"><rect x="0" y="0" width="35" height="35" fill="#0a90bd" stroke="#000000" stroke-width="1"></rect><text y="23.75" style="line-height: 1; font-family: Verdana; font-size: 16px; font-weight: bold; fill: #000000;" x="11.290948390960693">A</text></g><g transform="translate(175, 0)"><rect x="0" y="0" width="35" height="35" fill="#0a90bd" stroke="#000000" stroke-width="1"></rect><text y="23.75" style="line-height: 1; font-family: Verdana; font-size: 16px; font-weight: bold; fill: #000000;" x="12.403892517089844">L</text></g><g transform="translate(210, 0)"><rect x="0" y="0" width="35" height="35" fill="#0a90bd" stroke="#000000" stroke-width="1"></rect><text y="23.75" style="line-height: 1; font-family: Verdana; font-size: 16px; font-weight: bold; fill: #000000;" x="11.290948390960693">A</text></g><g transform="translate(245, 0)"><rect x="0" y="0" width="35" height="35" fill="#0a90bd" stroke="#000000" stroke-width="1"></rect><text y="23.75" style="line-height: 1; font-family: Verdana; font-size: 16px; font-weight: bold; fill: #000000;" x="9.920273303985596">M</text></g><g transform="translate(280, 0)"><rect x="0" y="0" width="35" height="35" fill="#0a90bd" stroke="#000000" stroke-width="1"></rect><text y="23.75" style="line-height: 1; font-family: Verdana; font-size: 16px; font-weight: bold; fill: #000000;" x="12.036816120147705">E</text></g><g transform="translate(315, 0)"><rect x="0" y="0" width="35" height="35" fill="#0a90bd" stroke="#000000" stroke-width="1"></rect><text y="23.75" style="line-height: 1; font-family: Verdana; font-size: 16px; font-weight: bold; fill: #000000;" x="10.861390590667725">D</text></g><g transform="translate(350, 0)"><rect x="0" y="0" width="35" height="35" fill="#0a90bd" stroke="#000000" stroke-width="1"></rect><text y="23.75" style="line-height: 1; font-family: Verdana; font-size: 16px; font-weight: bold; fill: #000000;" x="11.290948390960693">A</text></g><g transform="translate(385, 0)"><rect x="0" y="0" width="35" height="35" fill="#0a90bd" stroke="#000000" stroke-width="1"></rect><text y="23.75" style="line-height: 1; font-family: Verdana; font-size: 16px; font-weight: bold; fill: #000000;" x="14.610253095626831">.</text></g><g transform="translate(420, 0)"><rect x="0" y="0" width="35" height="35" fill="#0a90bd" stroke="#000000" stroke-width="1"></rect><text y="23.75" style="line-height: 1; font-family: Verdana; font-size: 16px; font-weight: bold; fill: #000000;" x="10.701286315917969">O</text></g><g transform="translate(455, 0)"><rect x="0" y="0" width="35" height="35" fill="#0a90bd" stroke="#000000" stroke-width="1"></rect><text y="23.75" style="line-height: 1; font-family: Verdana; font-size: 16px; font-weight: bold; fill: #000000;" x="11.244088172912598">R</text></g><g transform="translate(490, 0)"><rect x="0" y="0" width="35" height="35" fill="#0a90bd" stroke="#000000" stroke-width="1"></rect><text y="23.75" style="line-height: 1; font-family: Verdana; font-size: 16px; font-weight: bold; fill: #000000;" x="11.013689994812012">G</text></g></g><text transform="translate(0, 1043)" style="line-height: 1; font-family: Verdana; font-size: 12px; font-weight: normal; fill: #000000;"><tspan x="0" y="-15">Created with XWords – the free online crossword puzzle generator</tspan><tspan x="0" y="0">https://www.xwords-generator.de/en</tspan></text></svg>