<svg xmlns="http://www.w3.org/2000/svg" xmlns:xlink="http://www.w3.org/1999/xlink" xmlns:ev="http://www.w3.org/2001/xml-events" version="1.1" width="972.1953125" height="898" viewBox="-15 -15 972.1953125 898"><text style="font-family: Verdana; font-size: 12px; font-weight: normal; fill: #000000; line-height: 15px;" transform="translate(509, 15)"><tspan x="0" y="0">1. Headsail</tspan><tspan x="0" y="15">2. Top of the sail</tspan><tspan x="0" y="30">3. Back of the sail</tspan><tspan x="0" y="45">4. Front of the sail</tspan><tspan x="0" y="60">5. Dinghy's removable keel</tspan><tspan x="0" y="75">6. Where the sheets connect to the Headsail</tspan><tspan x="0" y="90">7. Helps tell how well you are trimmed</tspan><tspan x="0" y="105">8. Used to hoist the sail</tspan><tspan x="0" y="120">9. Line tied to the bowplate for tieing up</tspan><tspan x="0" y="135">10. Side of the boat furthest from the wind</tspan><tspan x="0" y="150">11. Flapping of the sails</tspan><tspan x="0" y="165">12. Highest point of sail without luffing</tspan><tspan x="0" y="180">13. to turn the boat toward the direction of the wind</tspan><tspan x="0" y="195">14. to turn the boat away from the wind</tspan><tspan x="0" y="210">15. when over-taking a powerboat from behind</tspan><tspan x="0" y="225">16. when approaching a sailboat on the same tack and you are</tspan><tspan x="0" y="240">leeward boat</tspan></text><g><g><rect x="39" y="248" width="35" height="35" fill="#000000"></rect><rect x="74" y="248" width="35" height="35" fill="#000000"></rect><rect x="109" y="248" width="35" height="35" fill="#000000"></rect><rect x="144" y="248" width="35" height="35" fill="#000000"></rect><rect x="179" y="248" width="35" height="35" fill="#000000"></rect><rect x="214" y="248" width="35" height="35" fill="#000000"></rect><rect x="249" y="248" width="35" height="35" fill="#000000"></rect><rect x="284" y="248" width="35" height="35" fill="#000000"></rect><rect x="319" y="248" width="35" height="35" fill="#000000"></rect><rect x="354" y="248" width="35" height="35" fill="#000000"></rect><rect x="389" y="248" width="35" height="35" fill="#000000"></rect><rect x="39" y="283" width="35" height="35" fill="#000000"></rect><rect x="109" y="283" width="35" height="35" fill="#000000"></rect><rect x="179" y="283" width="35" height="35" fill="#000000"></rect><rect x="284" y="283" width="35" height="35" fill="#000000"></rect><rect x="39" y="318" width="35" height="35" fill="#000000"></rect><rect x="109" y="318" width="35" height="35" fill="#000000"></rect><rect x="179" y="318" width="35" height="35" fill="#000000"></rect><rect x="284" y="318" width="35" height="35" fill="#000000"></rect><rect x="389" y="318" width="35" height="35" fill="#000000"></rect><rect x="39" y="353" width="35" height="35" fill="#000000"></rect><rect x="179" y="353" width="35" height="35" fill="#000000"></rect><rect x="249" y="353" width="35" height="35" fill="#000000"></rect><rect x="389" y="353" width="35" height="35" fill="#000000"></rect><rect x="109" y="388" width="35" height="35" fill="#000000"></rect><rect x="144" y="388" width="35" height="35" fill="#000000"></rect><rect x="179" y="388" width="35" height="35" fill="#000000"></rect><rect x="214" y="388" width="35" height="35" fill="#000000"></rect><rect x="249" y="388" width="35" height="35" fill="#000000"></rect><rect x="284" y="388" width="35" height="35" fill="#000000"></rect><rect x="319" y="388" width="35" height="35" fill="#000000"></rect><rect x="354" y="388" width="35" height="35" fill="#000000"></rect><rect x="389" y="388" width="35" height="35" fill="#000000"></rect><rect x="424" y="388" width="35" height="35" fill="#000000"></rect><rect x="459" y="388" width="35" height="35" fill="#000000"></rect><rect x="179" y="423" width="35" height="35" fill="#000000"></rect><rect x="249" y="423" width="35" height="35" fill="#000000"></rect><rect x="389" y="423" width="35" height="35" fill="#000000"></rect><rect x="179" y="458" width="35" height="35" fill="#000000"></rect><rect x="249" y="458" width="35" height="35" fill="#000000"></rect><rect x="179" y="493" width="35" height="35" fill="#000000"></rect><rect x="249" y="493" width="35" height="35" fill="#000000"></rect><rect x="249" y="528" width="35" height="35" fill="#000000"></rect><rect x="319" y="528" width="35" height="35" fill="#000000"></rect><rect x="249" y="563" width="35" height="35" fill="#000000"></rect><rect x="319" y="563" width="35" height="35" fill="#000000"></rect><rect x="179" y="598" width="35" height="35" fill="#000000"></rect><rect x="214" y="598" width="35" height="35" fill="#000000"></rect><rect x="249" y="598" width="35" height="35" fill="#000000"></rect><rect x="284" y="598" width="35" height="35" fill="#000000"></rect><rect x="319" y="598" width="35" height="35" fill="#000000"></rect><rect x="354" y="598" width="35" height="35" fill="#000000"></rect><rect x="389" y="598" width="35" height="35" fill="#000000"></rect><rect x="319" y="633" width="35" height="35" fill="#000000"></rect><rect x="319" y="668" width="35" height="35" fill="#000000"></rect><rect x="319" y="703" width="35" height="35" fill="#000000"></rect><rect x="214" y="738" width="35" height="35" fill="#000000"></rect><rect x="249" y="738" width="35" height="35" fill="#000000"></rect><rect x="284" y="738" width="35" height="35" fill="#000000"></rect><rect x="319" y="738" width="35" height="35" fill="#000000"></rect><rect x="354" y="738" width="35" height="35" fill="#000000"></rect><rect x="389" y="738" width="35" height="35" fill="#000000"></rect><rect x="424" y="738" width="35" height="35" fill="#000000"></rect><rect x="109" y="178" width="35" height="35" fill="#000000"></rect><rect x="214" y="178" width="35" height="35" fill="#000000"></rect><rect x="389" y="178" width="35" height="35" fill="#000000"></rect><rect x="109" y="213" width="35" height="35" fill="#000000"></rect><rect x="179" y="213" width="35" height="35" fill="#000000"></rect><rect x="284" y="213" width="35" height="35" fill="#000000"></rect><rect x="389" y="213" width="35" height="35" fill="#000000"></rect><rect x="39" y="3" width="35" height="35" fill="#000000"></rect><rect x="74" y="3" width="35" height="35" fill="#000000"></rect><rect x="109" y="3" width="35" height="35" fill="#000000"></rect><rect x="144" y="3" width="35" height="35" fill="#000000"></rect><rect x="179" y="3" width="35" height="35" fill="#000000"></rect><rect x="214" y="3" width="35" height="35" fill="#000000"></rect><rect x="4" y="3" width="35" height="35" fill="#000000"></rect><rect x="109" y="38" width="35" height="35" fill="#000000"></rect><rect x="389" y="38" width="35" height="35" fill="#000000"></rect><rect x="109" y="73" width="35" height="35" fill="#000000"></rect><rect x="319" y="73" width="35" height="35" fill="#000000"></rect><rect x="354" y="73" width="35" height="35" fill="#000000"></rect><rect x="389" y="73" width="35" height="35" fill="#000000"></rect><rect x="424" y="73" width="35" height="35" fill="#000000"></rect><rect x="459" y="73" width="35" height="35" fill="#000000"></rect><rect x="109" y="108" width="35" height="35" fill="#000000"></rect><rect x="214" y="108" width="35" height="35" fill="#000000"></rect><rect x="389" y="108" width="35" height="35" fill="#000000"></rect><rect x="109" y="143" width="35" height="35" fill="#000000"></rect><rect x="179" y="143" width="35" height="35" fill="#000000"></rect><rect x="214" y="143" width="35" height="35" fill="#000000"></rect><rect x="249" y="143" width="35" height="35" fill="#000000"></rect><rect x="284" y="143" width="35" height="35" fill="#000000"></rect><rect x="319" y="143" width="35" height="35" fill="#000000"></rect><rect x="354" y="143" width="35" height="35" fill="#000000"></rect><rect x="389" y="143" width="35" height="35" fill="#000000"></rect></g><g transform="translate(35, 245)"><rect x="0" y="0" width="35" height="35" fill="#ffffff" stroke="#000000" stroke-width="1"></rect><text x="0.5" y="10.5" style="line-height: 1; font-family: Verdana; font-size: 10px; font-weight: normal; fill: #000000;">▾6/▸12</text></g><g transform="translate(70, 245)"><rect x="0" y="0" width="35" height="35" fill="#ffffff" stroke="#000000" stroke-width="1"></rect></g><g transform="translate(105, 245)"><rect x="0" y="0" width="35" height="35" fill="#ffffff" stroke="#000000" stroke-width="1"></rect></g><g transform="translate(140, 245)"><rect x="0" y="0" width="35" height="35" fill="#ffffff" stroke="#000000" stroke-width="1"></rect></g><g transform="translate(175, 245)"><rect x="0" y="0" width="35" height="35" fill="#ffffff" stroke="#000000" stroke-width="1"></rect></g><g transform="translate(210, 245)"><rect x="0" y="0" width="35" height="35" fill="#ffffff" stroke="#000000" stroke-width="1"></rect></g><g transform="translate(245, 245)"><rect x="0" y="0" width="35" height="35" fill="#ffffff" stroke="#000000" stroke-width="1"></rect></g><g transform="translate(280, 245)"><rect x="0" y="0" width="35" height="35" fill="#ffffff" stroke="#000000" stroke-width="1"></rect></g><g transform="translate(315, 245)"><rect x="0" y="0" width="35" height="35" fill="#ffffff" stroke="#000000" stroke-width="1"></rect></g><g transform="translate(350, 245)"><rect x="0" y="0" width="35" height="35" fill="#ffffff" stroke="#000000" stroke-width="1"></rect></g><g transform="translate(385, 245)"><rect x="0" y="0" width="35" height="35" fill="#ffffff" stroke="#000000" stroke-width="1"></rect></g><g transform="translate(35, 280)"><rect x="0" y="0" width="35" height="35" fill="#ffffff" stroke="#000000" stroke-width="1"></rect></g><g transform="translate(105, 280)"><rect x="0" y="0" width="35" height="35" fill="#ffffff" stroke="#000000" stroke-width="1"></rect></g><g transform="translate(175, 280)"><rect x="0" y="0" width="35" height="35" fill="#ffffff" stroke="#000000" stroke-width="1"></rect></g><g transform="translate(280, 280)"><rect x="0" y="0" width="35" height="35" fill="#ffffff" stroke="#000000" stroke-width="1"></rect></g><g transform="translate(35, 315)"><rect x="0" y="0" width="35" height="35" fill="#ffffff" stroke="#000000" stroke-width="1"></rect></g><g transform="translate(105, 315)"><rect x="0" y="0" width="35" height="35" fill="#ffffff" stroke="#000000" stroke-width="1"></rect></g><g transform="translate(175, 315)"><rect x="0" y="0" width="35" height="35" fill="#ffffff" stroke="#000000" stroke-width="1"></rect></g><g transform="translate(280, 315)"><rect x="0" y="0" width="35" height="35" fill="#ffffff" stroke="#000000" stroke-width="1"></rect></g><g transform="translate(385, 315)"><rect x="0" y="0" width="35" height="35" fill="#ffffff" stroke="#000000" stroke-width="1"></rect><text x="0.5" y="10.5" style="line-height: 1; font-family: Verdana; font-size: 10px; font-weight: normal; fill: #000000;">▾2</text></g><g transform="translate(35, 350)"><rect x="0" y="0" width="35" height="35" fill="#ffffff" stroke="#000000" stroke-width="1"></rect></g><g transform="translate(175, 350)"><rect x="0" y="0" width="35" height="35" fill="#ffffff" stroke="#000000" stroke-width="1"></rect></g><g transform="translate(245, 350)"><rect x="0" y="0" width="35" height="35" fill="#ffffff" stroke="#000000" stroke-width="1"></rect><text x="0.5" y="10.5" style="line-height: 1; font-family: Verdana; font-size: 10px; font-weight: normal; fill: #000000;">▾7</text></g><g transform="translate(385, 350)"><rect x="0" y="0" width="35" height="35" fill="#ffffff" stroke="#000000" stroke-width="1"></rect></g><g transform="translate(105, 385)"><rect x="0" y="0" width="35" height="35" fill="#d5d5d5" stroke="#000000" stroke-width="1"></rect><text y="31.5" style="line-height: 1; font-family: Verdana; font-size: 10px; font-weight: bold; fill: #ffffff;" x="24.394123077392578">4</text><text x="0.5" y="10.5" style="line-height: 1; font-family: Verdana; font-size: 10px; font-weight: normal; fill: #000000;">▸5</text></g><g transform="translate(140, 385)"><rect x="0" y="0" width="35" height="35" fill="#ffffff" stroke="#000000" stroke-width="1"></rect></g><g transform="translate(175, 385)"><rect x="0" y="0" width="35" height="35" fill="#ffffff" stroke="#000000" stroke-width="1"></rect></g><g transform="translate(210, 385)"><rect x="0" y="0" width="35" height="35" fill="#ffffff" stroke="#000000" stroke-width="1"></rect></g><g transform="translate(245, 385)"><rect x="0" y="0" width="35" height="35" fill="#ffffff" stroke="#000000" stroke-width="1"></rect></g><g transform="translate(280, 385)"><rect x="0" y="0" width="35" height="35" fill="#ffffff" stroke="#000000" stroke-width="1"></rect></g><g transform="translate(315, 385)"><rect x="0" y="0" width="35" height="35" fill="#ffffff" stroke="#000000" stroke-width="1"></rect></g><g transform="translate(350, 385)"><rect x="0" y="0" width="35" height="35" fill="#ffffff" stroke="#000000" stroke-width="1"></rect></g><g transform="translate(385, 385)"><rect x="0" y="0" width="35" height="35" fill="#ffffff" stroke="#000000" stroke-width="1"></rect></g><g transform="translate(420, 385)"><rect x="0" y="0" width="35" height="35" fill="#ffffff" stroke="#000000" stroke-width="1"></rect></g><g transform="translate(455, 385)"><rect x="0" y="0" width="35" height="35" fill="#ffffff" stroke="#000000" stroke-width="1"></rect></g><g transform="translate(175, 420)"><rect x="0" y="0" width="35" height="35" fill="#ffffff" stroke="#000000" stroke-width="1"></rect></g><g transform="translate(245, 420)"><rect x="0" y="0" width="35" height="35" fill="#ffffff" stroke="#000000" stroke-width="1"></rect></g><g transform="translate(385, 420)"><rect x="0" y="0" width="35" height="35" fill="#ffffff" stroke="#000000" stroke-width="1"></rect></g><g transform="translate(175, 455)"><rect x="0" y="0" width="35" height="35" fill="#ffffff" stroke="#000000" stroke-width="1"></rect></g><g transform="translate(245, 455)"><rect x="0" y="0" width="35" height="35" fill="#ffffff" stroke="#000000" stroke-width="1"></rect></g><g transform="translate(175, 490)"><rect x="0" y="0" width="35" height="35" fill="#ffffff" stroke="#000000" stroke-width="1"></rect></g><g transform="translate(245, 490)"><rect x="0" y="0" width="35" height="35" fill="#ffffff" stroke="#000000" stroke-width="1"></rect></g><g transform="translate(245, 525)"><rect x="0" y="0" width="35" height="35" fill="#ffffff" stroke="#000000" stroke-width="1"></rect></g><g transform="translate(315, 525)"><rect x="0" y="0" width="35" height="35" fill="#d5d5d5" stroke="#000000" stroke-width="1"></rect><text y="31.5" style="line-height: 1; font-family: Verdana; font-size: 10px; font-weight: bold; fill: #ffffff;" x="24.394123077392578">3</text><text x="0.5" y="10.5" style="line-height: 1; font-family: Verdana; font-size: 10px; font-weight: normal; fill: #000000;">▾16</text></g><g transform="translate(245, 560)"><rect x="0" y="0" width="35" height="35" fill="#ffffff" stroke="#000000" stroke-width="1"></rect></g><g transform="translate(315, 560)"><rect x="0" y="0" width="35" height="35" fill="#ffffff" stroke="#000000" stroke-width="1"></rect></g><g transform="translate(175, 595)"><rect x="0" y="0" width="35" height="35" fill="#ffffff" stroke="#000000" stroke-width="1"></rect><text x="0.5" y="10.5" style="line-height: 1; font-family: Verdana; font-size: 10px; font-weight: normal; fill: #000000;">▸10</text></g><g transform="translate(210, 595)"><rect x="0" y="0" width="35" height="35" fill="#ffffff" stroke="#000000" stroke-width="1"></rect></g><g transform="translate(245, 595)"><rect x="0" y="0" width="35" height="35" fill="#ffffff" stroke="#000000" stroke-width="1"></rect></g><g transform="translate(280, 595)"><rect x="0" y="0" width="35" height="35" fill="#ffffff" stroke="#000000" stroke-width="1"></rect></g><g transform="translate(315, 595)"><rect x="0" y="0" width="35" height="35" fill="#ffffff" stroke="#000000" stroke-width="1"></rect></g><g transform="translate(350, 595)"><rect x="0" y="0" width="35" height="35" fill="#ffffff" stroke="#000000" stroke-width="1"></rect></g><g transform="translate(385, 595)"><rect x="0" y="0" width="35" height="35" fill="#ffffff" stroke="#000000" stroke-width="1"></rect></g><g transform="translate(315, 630)"><rect x="0" y="0" width="35" height="35" fill="#ffffff" stroke="#000000" stroke-width="1"></rect></g><g transform="translate(315, 665)"><rect x="0" y="0" width="35" height="35" fill="#ffffff" stroke="#000000" stroke-width="1"></rect></g><g transform="translate(315, 700)"><rect x="0" y="0" width="35" height="35" fill="#ffffff" stroke="#000000" stroke-width="1"></rect></g><g transform="translate(210, 735)"><rect x="0" y="0" width="35" height="35" fill="#ffffff" stroke="#000000" stroke-width="1"></rect><text x="0.5" y="10.5" style="line-height: 1; font-family: Verdana; font-size: 10px; font-weight: normal; fill: #000000;">▸9</text></g><g transform="translate(245, 735)"><rect x="0" y="0" width="35" height="35" fill="#d5d5d5" stroke="#000000" stroke-width="1"></rect><text y="31.5" style="line-height: 1; font-family: Verdana; font-size: 10px; font-weight: bold; fill: #ffffff;" x="24.394123077392578">1</text></g><g transform="translate(280, 735)"><rect x="0" y="0" width="35" height="35" fill="#ffffff" stroke="#000000" stroke-width="1"></rect></g><g transform="translate(315, 735)"><rect x="0" y="0" width="35" height="35" fill="#ffffff" stroke="#000000" stroke-width="1"></rect></g><g transform="translate(350, 735)"><rect x="0" y="0" width="35" height="35" fill="#ffffff" stroke="#000000" stroke-width="1"></rect></g><g transform="translate(385, 735)"><rect x="0" y="0" width="35" height="35" fill="#ffffff" stroke="#000000" stroke-width="1"></rect></g><g transform="translate(420, 735)"><rect x="0" y="0" width="35" height="35" fill="#ffffff" stroke="#000000" stroke-width="1"></rect></g><g transform="translate(105, 175)"><rect x="0" y="0" width="35" height="35" fill="#ffffff" stroke="#000000" stroke-width="1"></rect></g><g transform="translate(210, 175)"><rect x="0" y="0" width="35" height="35" fill="#ffffff" stroke="#000000" stroke-width="1"></rect></g><g transform="translate(385, 175)"><rect x="0" y="0" width="35" height="35" fill="#ffffff" stroke="#000000" stroke-width="1"></rect></g><g transform="translate(105, 210)"><rect x="0" y="0" width="35" height="35" fill="#ffffff" stroke="#000000" stroke-width="1"></rect></g><g transform="translate(175, 210)"><rect x="0" y="0" width="35" height="35" fill="#ffffff" stroke="#000000" stroke-width="1"></rect><text x="0.5" y="10.5" style="line-height: 1; font-family: Verdana; font-size: 10px; font-weight: normal; fill: #000000;">▾13</text></g><g transform="translate(280, 210)"><rect x="0" y="0" width="35" height="35" fill="#ffffff" stroke="#000000" stroke-width="1"></rect><text x="0.5" y="10.5" style="line-height: 1; font-family: Verdana; font-size: 10px; font-weight: normal; fill: #000000;">▾4</text></g><g transform="translate(385, 210)"><rect x="0" y="0" width="35" height="35" fill="#ffffff" stroke="#000000" stroke-width="1"></rect></g><g transform="translate(35, 0)"><rect x="0" y="0" width="35" height="35" fill="#ffffff" stroke="#000000" stroke-width="1"></rect></g><g transform="translate(70, 0)"><rect x="0" y="0" width="35" height="35" fill="#ffffff" stroke="#000000" stroke-width="1"></rect></g><g transform="translate(105, 0)"><rect x="0" y="0" width="35" height="35" fill="#ffffff" stroke="#000000" stroke-width="1"></rect><text x="0.5" y="10.5" style="line-height: 1; font-family: Verdana; font-size: 10px; font-weight: normal; fill: #000000;">▾14</text></g><g transform="translate(140, 0)"><rect x="0" y="0" width="35" height="35" fill="#ffffff" stroke="#000000" stroke-width="1"></rect></g><g transform="translate(175, 0)"><rect x="0" y="0" width="35" height="35" fill="#ffffff" stroke="#000000" stroke-width="1"></rect></g><g transform="translate(210, 0)"><rect x="0" y="0" width="35" height="35" fill="#ffffff" stroke="#000000" stroke-width="1"></rect></g><g transform="translate(0, 0)"><rect x="0" y="0" width="35" height="35" fill="#ffffff" stroke="#000000" stroke-width="1"></rect><text x="0.5" y="10.5" style="line-height: 1; font-family: Verdana; font-size: 10px; font-weight: normal; fill: #000000;">▸11</text></g><g transform="translate(105, 35)"><rect x="0" y="0" width="35" height="35" fill="#ffffff" stroke="#000000" stroke-width="1"></rect></g><g transform="translate(385, 35)"><rect x="0" y="0" width="35" height="35" fill="#ffffff" stroke="#000000" stroke-width="1"></rect><text x="0.5" y="10.5" style="line-height: 1; font-family: Verdana; font-size: 10px; font-weight: normal; fill: #000000;">▾8</text></g><g transform="translate(105, 70)"><rect x="0" y="0" width="35" height="35" fill="#ffffff" stroke="#000000" stroke-width="1"></rect></g><g transform="translate(315, 70)"><rect x="0" y="0" width="35" height="35" fill="#ffffff" stroke="#000000" stroke-width="1"></rect><text x="0.5" y="10.5" style="line-height: 1; font-family: Verdana; font-size: 10px; font-weight: normal; fill: #000000;">▸3</text></g><g transform="translate(350, 70)"><rect x="0" y="0" width="35" height="35" fill="#ffffff" stroke="#000000" stroke-width="1"></rect></g><g transform="translate(385, 70)"><rect x="0" y="0" width="35" height="35" fill="#ffffff" stroke="#000000" stroke-width="1"></rect></g><g transform="translate(420, 70)"><rect x="0" y="0" width="35" height="35" fill="#d5d5d5" stroke="#000000" stroke-width="1"></rect><text y="31.5" style="line-height: 1; font-family: Verdana; font-size: 10px; font-weight: bold; fill: #ffffff;" x="24.394123077392578">2</text></g><g transform="translate(455, 70)"><rect x="0" y="0" width="35" height="35" fill="#ffffff" stroke="#000000" stroke-width="1"></rect></g><g transform="translate(105, 105)"><rect x="0" y="0" width="35" height="35" fill="#ffffff" stroke="#000000" stroke-width="1"></rect></g><g transform="translate(210, 105)"><rect x="0" y="0" width="35" height="35" fill="#ffffff" stroke="#000000" stroke-width="1"></rect><text x="0.5" y="10.5" style="line-height: 1; font-family: Verdana; font-size: 10px; font-weight: normal; fill: #000000;">▾1</text></g><g transform="translate(385, 105)"><rect x="0" y="0" width="35" height="35" fill="#ffffff" stroke="#000000" stroke-width="1"></rect></g><g transform="translate(105, 140)"><rect x="0" y="0" width="35" height="35" fill="#ffffff" stroke="#000000" stroke-width="1"></rect></g><g transform="translate(175, 140)"><rect x="0" y="0" width="35" height="35" fill="#ffffff" stroke="#000000" stroke-width="1"></rect><text x="0.5" y="10.5" style="line-height: 1; font-family: Verdana; font-size: 10px; font-weight: normal; fill: #000000;">▸15</text></g><g transform="translate(210, 140)"><rect x="0" y="0" width="35" height="35" fill="#ffffff" stroke="#000000" stroke-width="1"></rect></g><g transform="translate(245, 140)"><rect x="0" y="0" width="35" height="35" fill="#ffffff" stroke="#000000" stroke-width="1"></rect></g><g transform="translate(280, 140)"><rect x="0" y="0" width="35" height="35" fill="#ffffff" stroke="#000000" stroke-width="1"></rect></g><g transform="translate(315, 140)"><rect x="0" y="0" width="35" height="35" fill="#ffffff" stroke="#000000" stroke-width="1"></rect></g><g transform="translate(350, 140)"><rect x="0" y="0" width="35" height="35" fill="#ffffff" stroke="#000000" stroke-width="1"></rect></g><g transform="translate(385, 140)"><rect x="0" y="0" width="35" height="35" fill="#ffffff" stroke="#000000" stroke-width="1"></rect></g></g><g transform="translate(0, 788)"><g><rect x="4" y="3" width="35" height="35" fill="#000000"></rect><rect x="39" y="3" width="35" height="35" fill="#000000"></rect><rect x="74" y="3" width="35" height="35" fill="#000000"></rect><rect x="109" y="3" width="35" height="35" fill="#000000"></rect></g><g transform="translate(0, 0)"><rect x="0" y="0" width="35" height="35" fill="#d5d5d5" stroke="#000000" stroke-width="1"></rect><text y="23.75" style="line-height: 1; font-family: Verdana; font-size: 16px; font-weight: bold; fill: #ffffff;" x="11.814231872558594">1</text></g><g transform="translate(35, 0)"><rect x="0" y="0" width="35" height="35" fill="#d5d5d5" stroke="#000000" stroke-width="1"></rect><text y="23.75" style="line-height: 1; font-family: Verdana; font-size: 16px; font-weight: bold; fill: #ffffff;" x="11.814231872558594">2</text></g><g transform="translate(70, 0)"><rect x="0" y="0" width="35" height="35" fill="#d5d5d5" stroke="#000000" stroke-width="1"></rect><text y="23.75" style="line-height: 1; font-family: Verdana; font-size: 16px; font-weight: bold; fill: #ffffff;" x="11.814231872558594">3</text></g><g transform="translate(105, 0)"><rect x="0" y="0" width="35" height="35" fill="#d5d5d5" stroke="#000000" stroke-width="1"></rect><text y="23.75" style="line-height: 1; font-family: Verdana; font-size: 16px; font-weight: bold; fill: #ffffff;" x="11.814231872558594">4</text></g></g><text transform="translate(0, 868)" style="line-height: 1; font-family: Verdana; font-size: 12px; font-weight: normal; fill: #000000;"><tspan x="0" y="-15">Created with XWords – the free online crossword puzzle generator</tspan><tspan x="0" y="0">https://www.xwords-generator.de/en</tspan></text></svg>