<svg id="Layer_1" data-name="Layer 1" xmlns="http://www.w3.org/2000/svg" viewBox="0 0 210 102"><defs><style>.cls-1{fill:#4d4d4d;}</style></defs><title>Artboard 1</title><path class="cls-1" d="M42.08,40.4c-.11-.67-.7-1-1.55-1-1.11,0-1.55.53-1.55,1.23,0,2,7.67-.21,7.67,5.5,0,2.81-2.43,4.86-6.18,4.86s-6.12-2-6.17-4.77h4.33c0,.76.58,1.14,1.79,1.14,1.4,0,1.78-.47,1.78-1.23,0-2-7.67.21-7.67-5.5,0-2.78,2.31-4.86,5.91-4.86s5.83,2.08,5.92,4.68Z"/><path class="cls-1" d="M63.87,50.56h-4V48.31h-.06a4.68,4.68,0,0,1-4.48,2.63c-3.07,0-6.94-2.25-6.94-7.61a7.43,7.43,0,0,1,7.79-7.61c4.57,0,7.73,3,7.73,7.76Zm-4.39-7.23a3.34,3.34,0,1,0-6.68,0,3.34,3.34,0,1,0,6.68,0Z"/><path class="cls-1" d="M66.6,32a2.81,2.81,0,1,1,2.81,2.81A2.77,2.77,0,0,1,66.6,32Zm.61,18.59V36.1H71.6V50.56Z"/><path class="cls-1" d="M75.41,50.56V29.77H79.8V50.56Z"/><path class="cls-1" d="M98.07,50.56H94V48.31H94a4.68,4.68,0,0,1-4.48,2.63c-3.07,0-6.94-2.25-6.94-7.61a7.43,7.43,0,0,1,7.79-7.61c4.57,0,7.73,3,7.73,7.76Zm-4.39-7.23a3.34,3.34,0,1,0-6.68,0,3.34,3.34,0,1,0,6.68,0Z"/><path class="cls-1" d="M101.41,50.56V29.77h4.39V50.56Z"/><path class="cls-1" d="M124.08,50.56h-4V48.31H120a4.68,4.68,0,0,1-4.48,2.63c-3.08,0-6.94-2.25-6.94-7.61a7.43,7.43,0,0,1,7.79-7.61c4.57,0,7.73,3,7.73,7.76Zm-4.39-7.23a3.34,3.34,0,1,0-6.68,0,3.34,3.34,0,1,0,6.68,0Z"/><path class="cls-1" d="M135.82,50.56V42.42c0-1.93-.94-2.6-2.23-2.6s-2.25.67-2.25,2.6v8.14H127V42.42c0-4.65,2.69-6.7,6.21-6.7A5.79,5.79,0,0,1,138,38h.06a5.74,5.74,0,0,1,4.83-2.25c3.51,0,6.2,2.05,6.2,6.7v8.14h-4.39V42.42c0-1.93-.93-2.6-2.25-2.6s-2.23.67-2.23,2.6v8.14Z"/><path class="cls-1" d="M155.94,44.56v.06a3,3,0,0,0,3.22,2.4A3.09,3.09,0,0,0,161.91,46h4.54a7.28,7.28,0,0,1-7.29,5,7.61,7.61,0,1,1,0-15.22,7.35,7.35,0,0,1,7.7,7.61v1.23Zm.09-2.84v.06h6.32v-.06a3.14,3.14,0,0,0-3.19-2.08A3,3,0,0,0,156,41.72Z"/><path class="cls-1" d="M184.08,43.18c0,4.75-3.16,7.76-7.73,7.76a7.43,7.43,0,0,1-7.79-7.61c0-5.36,3.86-7.61,6.94-7.61a4.94,4.94,0,0,1,4.13,1.87h.06V29.77h4.39Zm-4.39.15a3.34,3.34,0,1,0-6.68,0,3.34,3.34,0,1,0,6.68,0Z"/><path class="cls-1" d="M201.88,50.56h-4V48.31h-.06a4.68,4.68,0,0,1-4.48,2.63c-3.07,0-6.94-2.25-6.94-7.61a7.43,7.43,0,0,1,7.79-7.61c4.57,0,7.73,3,7.73,7.76Zm-4.39-7.23a3.34,3.34,0,1,0-6.68,0,3.34,3.34,0,1,0,6.68,0Z"/><polygon class="cls-1" points="158.5 93.5 142 77 151.5 67.5 116.5 57.5 126.5 92.5 136.34 82.66 152.5 99.5 158.5 93.5"/><path class="cls-1" d="M147.74,75.5H202a1,1,0,0,0,1-1V70.54a1,1,0,0,0-1-1H153.74l-.12.12Z"/><path class="cls-1" d="M16.65,14.5H202a1,1,0,0,0,1-1V9.54a1,1,0,0,0-1-1H16.65A10.14,10.14,0,0,0,6.5,18.65v46.7A10.14,10.14,0,0,0,16.65,75.5H118.52l-1.71-6H16.65a4.15,4.15,0,0,1-4.15-4.15V18.65A4.15,4.15,0,0,1,16.65,14.5Z"/><path class="cls-1" d="M26.88,61A3.88,3.88,0,0,1,23,57.12V24.88A3.88,3.88,0,0,1,26.88,21H202a1,1,0,0,0,1-1V19a1,1,0,0,0-1-1H26.88A6.88,6.88,0,0,0,20,24.88V57.12A6.88,6.88,0,0,0,26.88,64h88.36l-.86-3Z"/><path class="cls-1" d="M202,64a1,1,0,0,0,1-1V62a1,1,0,0,0-1-1H139.67l10.5,3Z"/></svg>